<svg xmlns="http://www.w3.org/2000/svg" width="52" height="54"><path fill="#4B4D59" d="M0 0h1v1H0zM1 0h1v1H1zM2 0h1v1H2zM3 0h1v1H3zM4 0h1v1H4zM5 0h1v1H5zM6 0h1v1H6z"/><path fill="#454B52" d="M7 0h1v1H7zM8 0h1v1H8zM9 0h1v1H9z"/><path fill="#292B2D" d="M10 0h1v1h-1zM11 0h1v1h-1zM12 0h1v1h-1zM13 0h1v1h-1zM14 0h1v1h-1zM15 0h1v1h-1z"/><path fill="#181818" d="M16 0h1v1h-1zM17 0h1v1h-1zM18 0h1v1h-1zM19 0h1v1h-1zM20 0h1v1h-1zM21 0h1v1h-1zM22 0h1v1h-1zM23 0h1v1h-1zM24 0h1v1h-1zM25 0h1v1h-1zM26 0h1v1h-1zM27 0h1v1h-1zM28 0h1v1h-1zM29 0h1v1h-1zM30 0h1v1h-1zM31 0h1v1h-1zM32 0h1v1h-1zM33 0h1v1h-1zM34 0h1v1h-1zM35 0h1v1h-1z"/><path fill="#292B2D" d="M36 0h1v1h-1zM37 0h1v1h-1zM38 0h1v1h-1zM39 0h1v1h-1zM40 0h1v1h-1zM41 0h1v1h-1z"/><path fill="#454B52" d="M42 0h1v1h-1zM43 0h1v1h-1zM44 0h1v1h-1zM45 0h1v1h-1z"/><path fill="#4B4D59" d="M46 0h1v1h-1zM47 0h1v1h-1zM48 0h1v1h-1zM49 0h1v1h-1zM50 0h1v1h-1zM51 0h1v1h-1zM0 1h1v1H0zM1 1h1v1H1zM2 1h1v1H2zM3 1h1v1H3zM4 1h1v1H4zM5 1h1v1H5zM6 1h1v1H6z"/><path fill="#454B52" d="M7 1h1v1H7zM8 1h1v1H8zM9 1h1v1H9z"/><path fill="#292B2D" d="M10 1h1v1h-1zM11 1h1v1h-1zM12 1h1v1h-1zM13 1h1v1h-1zM14 1h1v1h-1zM15 1h1v1h-1z"/><path fill="#181818" d="M16 1h1v1h-1zM17 1h1v1h-1zM18 1h1v1h-1zM19 1h1v1h-1zM20 1h1v1h-1zM21 1h1v1h-1zM22 1h1v1h-1zM23 1h1v1h-1zM24 1h1v1h-1zM25 1h1v1h-1zM26 1h1v1h-1zM27 1h1v1h-1zM28 1h1v1h-1zM29 1h1v1h-1zM30 1h1v1h-1zM31 1h1v1h-1zM32 1h1v1h-1zM33 1h1v1h-1zM34 1h1v1h-1zM35 1h1v1h-1z"/><path fill="#292B2D" d="M36 1h1v1h-1zM37 1h1v1h-1zM38 1h1v1h-1zM39 1h1v1h-1zM40 1h1v1h-1zM41 1h1v1h-1z"/><path fill="#454B52" d="M42 1h1v1h-1zM43 1h1v1h-1zM44 1h1v1h-1zM45 1h1v1h-1z"/><path fill="#4B4D59" d="M46 1h1v1h-1zM47 1h1v1h-1zM48 1h1v1h-1zM49 1h1v1h-1zM50 1h1v1h-1zM51 1h1v1h-1zM0 2h1v1H0zM1 2h1v1H1zM2 2h1v1H2zM3 2h1v1H3zM4 2h1v1H4zM5 2h1v1H5zM6 2h1v1H6z"/><path fill="#454B52" d="M7 2h1v1H7zM8 2h1v1H8zM9 2h1v1H9z"/><path fill="#292B2D" d="M10 2h1v1h-1zM11 2h1v1h-1zM12 2h1v1h-1zM13 2h1v1h-1zM14 2h1v1h-1zM15 2h1v1h-1z"/><path fill="#181818" d="M16 2h1v1h-1zM17 2h1v1h-1zM18 2h1v1h-1zM19 2h1v1h-1zM20 2h1v1h-1zM21 2h1v1h-1zM22 2h1v1h-1zM23 2h1v1h-1zM24 2h1v1h-1zM25 2h1v1h-1zM26 2h1v1h-1zM27 2h1v1h-1zM28 2h1v1h-1zM29 2h1v1h-1zM30 2h1v1h-1zM31 2h1v1h-1zM32 2h1v1h-1zM33 2h1v1h-1zM34 2h1v1h-1zM35 2h1v1h-1z"/><path fill="#292B2D" d="M36 2h1v1h-1zM37 2h1v1h-1zM38 2h1v1h-1zM39 2h1v1h-1zM40 2h1v1h-1zM41 2h1v1h-1z"/><path fill="#454B52" d="M42 2h1v1h-1zM43 2h1v1h-1zM44 2h1v1h-1zM45 2h1v1h-1z"/><path fill="#4B4D59" d="M46 2h1v1h-1zM47 2h1v1h-1zM48 2h1v1h-1zM49 2h1v1h-1zM50 2h1v1h-1zM51 2h1v1h-1zM0 3h1v1H0zM1 3h1v1H1zM2 3h1v1H2z"/><path fill="#454B52" d="M3 3h1v1H3zM4 3h1v1H4zM5 3h1v1H5zM6 3h1v1H6zM7 3h1v1H7zM8 3h1v1H8zM9 3h1v1H9z"/><path fill="#8D6ACC" d="M10 3h1v1h-1zM11 3h1v1h-1zM12 3h1v1h-1z"/><path fill="#64479E" d="M13 3h1v1h-1zM14 3h1v1h-1zM15 3h1v1h-1z"/><path fill="#7A5BB5" d="M16 3h1v1h-1zM17 3h1v1h-1zM18 3h1v1h-1zM19 3h1v1h-1z"/><path fill="#8D6ACC" d="M20 3h1v1h-1zM21 3h1v1h-1zM22 3h1v1h-1z"/><path fill="#7A5BB5" d="M23 3h1v1h-1zM24 3h1v1h-1zM25 3h1v1h-1z"/><path fill="#8D6ACC" d="M26 3h1v1h-1zM27 3h1v1h-1zM28 3h1v1h-1z"/><path fill="#A678F1" d="M29 3h1v1h-1zM30 3h1v1h-1zM31 3h1v1h-1zM32 3h1v1h-1z"/><path fill="#5D3A9A" d="M33 3h1v1h-1zM34 3h1v1h-1zM35 3h1v1h-1zM36 3h1v1h-1zM37 3h1v1h-1zM38 3h1v1h-1z"/><path fill="#7A5BB5" d="M39 3h1v1h-1zM40 3h1v1h-1zM41 3h1v1h-1z"/><path fill="#454B52" d="M42 3h1v1h-1zM43 3h1v1h-1zM44 3h1v1h-1zM45 3h1v1h-1zM46 3h1v1h-1zM47 3h1v1h-1zM48 3h1v1h-1z"/><path fill="#4B4D59" d="M49 3h1v1h-1zM50 3h1v1h-1zM51 3h1v1h-1zM0 4h1v1H0zM1 4h1v1H1zM2 4h1v1H2z"/><path fill="#454B52" d="M3 4h1v1H3zM4 4h1v1H4zM5 4h1v1H5zM6 4h1v1H6zM7 4h1v1H7zM8 4h1v1H8zM9 4h1v1H9z"/><path fill="#8D6ACC" d="M10 4h1v1h-1zM11 4h1v1h-1zM12 4h1v1h-1z"/><path fill="#64479E" d="M13 4h1v1h-1zM14 4h1v1h-1zM15 4h1v1h-1z"/><path fill="#7A5BB5" d="M16 4h1v1h-1zM17 4h1v1h-1zM18 4h1v1h-1zM19 4h1v1h-1z"/><path fill="#8D6ACC" d="M20 4h1v1h-1zM21 4h1v1h-1zM22 4h1v1h-1z"/><path fill="#7A5BB5" d="M23 4h1v1h-1zM24 4h1v1h-1zM25 4h1v1h-1z"/><path fill="#8D6ACC" d="M26 4h1v1h-1zM27 4h1v1h-1zM28 4h1v1h-1z"/><path fill="#A678F1" d="M29 4h1v1h-1zM30 4h1v1h-1zM31 4h1v1h-1zM32 4h1v1h-1z"/><path fill="#5D3A9A" d="M33 4h1v1h-1zM34 4h1v1h-1zM35 4h1v1h-1zM36 4h1v1h-1zM37 4h1v1h-1zM38 4h1v1h-1z"/><path fill="#7A5BB5" d="M39 4h1v1h-1zM40 4h1v1h-1zM41 4h1v1h-1z"/><path fill="#454B52" d="M42 4h1v1h-1zM43 4h1v1h-1zM44 4h1v1h-1zM45 4h1v1h-1zM46 4h1v1h-1zM47 4h1v1h-1zM48 4h1v1h-1z"/><path fill="#4B4D59" d="M49 4h1v1h-1zM50 4h1v1h-1zM51 4h1v1h-1zM0 5h1v1H0zM1 5h1v1H1zM2 5h1v1H2z"/><path fill="#454B52" d="M3 5h1v1H3zM4 5h1v1H4zM5 5h1v1H5zM6 5h1v1H6zM7 5h1v1H7zM8 5h1v1H8zM9 5h1v1H9z"/><path fill="#8D6ACC" d="M10 5h1v1h-1zM11 5h1v1h-1zM12 5h1v1h-1z"/><path fill="#64479E" d="M13 5h1v1h-1zM14 5h1v1h-1zM15 5h1v1h-1z"/><path fill="#7A5BB5" d="M16 5h1v1h-1zM17 5h1v1h-1zM18 5h1v1h-1zM19 5h1v1h-1z"/><path fill="#8D6ACC" d="M20 5h1v1h-1zM21 5h1v1h-1zM22 5h1v1h-1z"/><path fill="#7A5BB5" d="M23 5h1v1h-1zM24 5h1v1h-1zM25 5h1v1h-1z"/><path fill="#8D6ACC" d="M26 5h1v1h-1zM27 5h1v1h-1zM28 5h1v1h-1z"/><path fill="#A678F1" d="M29 5h1v1h-1zM30 5h1v1h-1zM31 5h1v1h-1zM32 5h1v1h-1z"/><path fill="#5D3A9A" d="M33 5h1v1h-1zM34 5h1v1h-1zM35 5h1v1h-1zM36 5h1v1h-1zM37 5h1v1h-1zM38 5h1v1h-1z"/><path fill="#7A5BB5" d="M39 5h1v1h-1zM40 5h1v1h-1zM41 5h1v1h-1z"/><path fill="#454B52" d="M42 5h1v1h-1zM43 5h1v1h-1zM44 5h1v1h-1zM45 5h1v1h-1zM46 5h1v1h-1zM47 5h1v1h-1zM48 5h1v1h-1z"/><path fill="#4B4D59" d="M49 5h1v1h-1zM50 5h1v1h-1zM51 5h1v1h-1zM0 6h1v1H0zM1 6h1v1H1zM2 6h1v1H2z"/><path fill="#454B52" d="M3 6h1v1H3zM4 6h1v1H4zM5 6h1v1H5zM6 6h1v1H6zM7 6h1v1H7zM8 6h1v1H8zM9 6h1v1H9z"/><path fill="#8D6ACC" d="M10 6h1v1h-1zM11 6h1v1h-1zM12 6h1v1h-1z"/><path fill="#64479E" d="M13 6h1v1h-1zM14 6h1v1h-1zM15 6h1v1h-1z"/><path fill="#7A5BB5" d="M16 6h1v1h-1zM17 6h1v1h-1zM18 6h1v1h-1zM19 6h1v1h-1z"/><path fill="#8D6ACC" d="M20 6h1v1h-1zM21 6h1v1h-1zM22 6h1v1h-1z"/><path fill="#7A5BB5" d="M23 6h1v1h-1zM24 6h1v1h-1zM25 6h1v1h-1z"/><path fill="#8D6ACC" d="M26 6h1v1h-1zM27 6h1v1h-1zM28 6h1v1h-1z"/><path fill="#A678F1" d="M29 6h1v1h-1zM30 6h1v1h-1zM31 6h1v1h-1zM32 6h1v1h-1z"/><path fill="#5D3A9A" d="M33 6h1v1h-1zM34 6h1v1h-1zM35 6h1v1h-1zM36 6h1v1h-1zM37 6h1v1h-1zM38 6h1v1h-1z"/><path fill="#7A5BB5" d="M39 6h1v1h-1zM40 6h1v1h-1zM41 6h1v1h-1z"/><path fill="#454B52" d="M42 6h1v1h-1zM43 6h1v1h-1zM44 6h1v1h-1zM45 6h1v1h-1zM46 6h1v1h-1zM47 6h1v1h-1zM48 6h1v1h-1z"/><path fill="#4B4D59" d="M49 6h1v1h-1zM50 6h1v1h-1zM51 6h1v1h-1z"/><path fill="#454B52" d="M0 7h1v1H0zM1 7h1v1H1zM2 7h1v1H2zM3 7h1v1H3zM4 7h1v1H4zM5 7h1v1H5zM6 7h1v1H6z"/><path fill="#7A5BB5" d="M7 7h1v1H7zM8 7h1v1H8zM9 7h1v1H9z"/><path fill="#64479E" d="M10 7h1v1h-1zM11 7h1v1h-1zM12 7h1v1h-1zM13 7h1v1h-1zM14 7h1v1h-1zM15 7h1v1h-1z"/><path fill="#8D6ACC" d="M16 7h1v1h-1zM17 7h1v1h-1zM18 7h1v1h-1zM19 7h1v1h-1z"/><path fill="#A678F1" d="M20 7h1v1h-1zM21 7h1v1h-1zM22 7h1v1h-1z"/><path fill="#7A5BB5" d="M23 7h1v1h-1zM24 7h1v1h-1zM25 7h1v1h-1z"/><path fill="#64479E" d="M26 7h1v1h-1zM27 7h1v1h-1zM28 7h1v1h-1z"/><path fill="#A678F1" d="M29 7h1v1h-1zM30 7h1v1h-1zM31 7h1v1h-1zM32 7h1v1h-1z"/><path fill="#5D3A9A" d="M33 7h1v1h-1zM34 7h1v1h-1zM35 7h1v1h-1z"/><path fill="#64479E" d="M36 7h1v1h-1zM37 7h1v1h-1zM38 7h1v1h-1z"/><path fill="#A678F1" d="M39 7h1v1h-1zM40 7h1v1h-1zM41 7h1v1h-1z"/><path fill="#7A5BB5" d="M42 7h1v1h-1zM43 7h1v1h-1zM44 7h1v1h-1zM45 7h1v1h-1z"/><path fill="#454B52" d="M46 7h1v1h-1zM47 7h1v1h-1zM48 7h1v1h-1zM49 7h1v1h-1zM50 7h1v1h-1zM51 7h1v1h-1zM0 8h1v1H0zM1 8h1v1H1zM2 8h1v1H2zM3 8h1v1H3zM4 8h1v1H4zM5 8h1v1H5zM6 8h1v1H6z"/><path fill="#7A5BB5" d="M7 8h1v1H7zM8 8h1v1H8zM9 8h1v1H9z"/><path fill="#64479E" d="M10 8h1v1h-1zM11 8h1v1h-1zM12 8h1v1h-1zM13 8h1v1h-1zM14 8h1v1h-1zM15 8h1v1h-1z"/><path fill="#8D6ACC" d="M16 8h1v1h-1zM17 8h1v1h-1zM18 8h1v1h-1zM19 8h1v1h-1z"/><path fill="#A678F1" d="M20 8h1v1h-1zM21 8h1v1h-1zM22 8h1v1h-1z"/><path fill="#7A5BB5" d="M23 8h1v1h-1zM24 8h1v1h-1zM25 8h1v1h-1z"/><path fill="#64479E" d="M26 8h1v1h-1zM27 8h1v1h-1zM28 8h1v1h-1z"/><path fill="#A678F1" d="M29 8h1v1h-1zM30 8h1v1h-1zM31 8h1v1h-1zM32 8h1v1h-1z"/><path fill="#5D3A9A" d="M33 8h1v1h-1zM34 8h1v1h-1zM35 8h1v1h-1z"/><path fill="#64479E" d="M36 8h1v1h-1zM37 8h1v1h-1zM38 8h1v1h-1z"/><path fill="#A678F1" d="M39 8h1v1h-1zM40 8h1v1h-1zM41 8h1v1h-1z"/><path fill="#7A5BB5" d="M42 8h1v1h-1zM43 8h1v1h-1zM44 8h1v1h-1zM45 8h1v1h-1z"/><path fill="#454B52" d="M46 8h1v1h-1zM47 8h1v1h-1zM48 8h1v1h-1zM49 8h1v1h-1zM50 8h1v1h-1zM51 8h1v1h-1zM0 9h1v1H0zM1 9h1v1H1zM2 9h1v1H2zM3 9h1v1H3zM4 9h1v1H4zM5 9h1v1H5zM6 9h1v1H6z"/><path fill="#7A5BB5" d="M7 9h1v1H7zM8 9h1v1H8zM9 9h1v1H9z"/><path fill="#64479E" d="M10 9h1v1h-1zM11 9h1v1h-1zM12 9h1v1h-1zM13 9h1v1h-1zM14 9h1v1h-1zM15 9h1v1h-1z"/><path fill="#8D6ACC" d="M16 9h1v1h-1zM17 9h1v1h-1zM18 9h1v1h-1zM19 9h1v1h-1z"/><path fill="#A678F1" d="M20 9h1v1h-1zM21 9h1v1h-1zM22 9h1v1h-1z"/><path fill="#7A5BB5" d="M23 9h1v1h-1zM24 9h1v1h-1zM25 9h1v1h-1z"/><path fill="#64479E" d="M26 9h1v1h-1zM27 9h1v1h-1zM28 9h1v1h-1z"/><path fill="#A678F1" d="M29 9h1v1h-1zM30 9h1v1h-1zM31 9h1v1h-1zM32 9h1v1h-1z"/><path fill="#5D3A9A" d="M33 9h1v1h-1zM34 9h1v1h-1zM35 9h1v1h-1z"/><path fill="#64479E" d="M36 9h1v1h-1zM37 9h1v1h-1zM38 9h1v1h-1z"/><path fill="#A678F1" d="M39 9h1v1h-1zM40 9h1v1h-1zM41 9h1v1h-1z"/><path fill="#7A5BB5" d="M42 9h1v1h-1zM43 9h1v1h-1zM44 9h1v1h-1zM45 9h1v1h-1z"/><path fill="#454B52" d="M46 9h1v1h-1zM47 9h1v1h-1zM48 9h1v1h-1zM49 9h1v1h-1zM50 9h1v1h-1zM51 9h1v1h-1z"/><path fill="#292B2D" d="M0 10h1v1H0zM1 10h1v1H1zM2 10h1v1H2z"/><path fill="#7A5BB5" d="M3 10h1v1H3zM4 10h1v1H4zM5 10h1v1H5zM6 10h1v1H6z"/><path fill="#8D6ACC" d="M7 10h1v1H7zM8 10h1v1H8zM9 10h1v1H9z"/><path fill="#64479E" d="M10 10h1v1h-1zM11 10h1v1h-1zM12 10h1v1h-1z"/><path fill="#5D3A9A" d="M13 10h1v1h-1zM14 10h1v1h-1zM15 10h1v1h-1zM16 10h1v1h-1zM17 10h1v1h-1zM18 10h1v1h-1zM19 10h1v1h-1z"/><path fill="#7A5BB5" d="M20 10h1v1h-1zM21 10h1v1h-1zM22 10h1v1h-1z"/><path fill="#64479E" d="M23 10h1v1h-1zM24 10h1v1h-1zM25 10h1v1h-1zM26 10h1v1h-1zM27 10h1v1h-1zM28 10h1v1h-1z"/><path fill="#7A5BB5" d="M29 10h1v1h-1zM30 10h1v1h-1zM31 10h1v1h-1zM32 10h1v1h-1z"/><path fill="#64479E" d="M33 10h1v1h-1zM34 10h1v1h-1zM35 10h1v1h-1z"/><path fill="#A678F1" d="M36 10h1v1h-1zM37 10h1v1h-1zM38 10h1v1h-1z"/><path fill="#C890F0" d="M39 10h1v1h-1zM40 10h1v1h-1zM41 10h1v1h-1z"/><path fill="#8D6ACC" d="M42 10h1v1h-1zM43 10h1v1h-1zM44 10h1v1h-1zM45 10h1v1h-1z"/><path fill="#7A5BB5" d="M46 10h1v1h-1zM47 10h1v1h-1zM48 10h1v1h-1z"/><path fill="#292B2D" d="M49 10h1v1h-1zM50 10h1v1h-1zM51 10h1v1h-1zM0 11h1v1H0zM1 11h1v1H1zM2 11h1v1H2z"/><path fill="#7A5BB5" d="M3 11h1v1H3zM4 11h1v1H4zM5 11h1v1H5zM6 11h1v1H6z"/><path fill="#8D6ACC" d="M7 11h1v1H7zM8 11h1v1H8zM9 11h1v1H9z"/><path fill="#64479E" d="M10 11h1v1h-1zM11 11h1v1h-1zM12 11h1v1h-1z"/><path fill="#5D3A9A" d="M13 11h1v1h-1zM14 11h1v1h-1zM15 11h1v1h-1zM16 11h1v1h-1zM17 11h1v1h-1zM18 11h1v1h-1zM19 11h1v1h-1z"/><path fill="#7A5BB5" d="M20 11h1v1h-1zM21 11h1v1h-1zM22 11h1v1h-1z"/><path fill="#64479E" d="M23 11h1v1h-1zM24 11h1v1h-1zM25 11h1v1h-1zM26 11h1v1h-1zM27 11h1v1h-1zM28 11h1v1h-1z"/><path fill="#7A5BB5" d="M29 11h1v1h-1zM30 11h1v1h-1zM31 11h1v1h-1zM32 11h1v1h-1z"/><path fill="#64479E" d="M33 11h1v1h-1zM34 11h1v1h-1zM35 11h1v1h-1z"/><path fill="#A678F1" d="M36 11h1v1h-1zM37 11h1v1h-1zM38 11h1v1h-1z"/><path fill="#C890F0" d="M39 11h1v1h-1zM40 11h1v1h-1zM41 11h1v1h-1z"/><path fill="#8D6ACC" d="M42 11h1v1h-1zM43 11h1v1h-1zM44 11h1v1h-1zM45 11h1v1h-1z"/><path fill="#7A5BB5" d="M46 11h1v1h-1zM47 11h1v1h-1zM48 11h1v1h-1z"/><path fill="#292B2D" d="M49 11h1v1h-1zM50 11h1v1h-1zM51 11h1v1h-1zM0 12h1v1H0zM1 12h1v1H1zM2 12h1v1H2z"/><path fill="#7A5BB5" d="M3 12h1v1H3zM4 12h1v1H4zM5 12h1v1H5zM6 12h1v1H6z"/><path fill="#8D6ACC" d="M7 12h1v1H7zM8 12h1v1H8zM9 12h1v1H9z"/><path fill="#64479E" d="M10 12h1v1h-1zM11 12h1v1h-1zM12 12h1v1h-1z"/><path fill="#5D3A9A" d="M13 12h1v1h-1zM14 12h1v1h-1zM15 12h1v1h-1zM16 12h1v1h-1zM17 12h1v1h-1zM18 12h1v1h-1zM19 12h1v1h-1z"/><path fill="#7A5BB5" d="M20 12h1v1h-1zM21 12h1v1h-1zM22 12h1v1h-1z"/><path fill="#64479E" d="M23 12h1v1h-1zM24 12h1v1h-1zM25 12h1v1h-1zM26 12h1v1h-1zM27 12h1v1h-1zM28 12h1v1h-1z"/><path fill="#7A5BB5" d="M29 12h1v1h-1zM30 12h1v1h-1zM31 12h1v1h-1zM32 12h1v1h-1z"/><path fill="#64479E" d="M33 12h1v1h-1zM34 12h1v1h-1zM35 12h1v1h-1z"/><path fill="#A678F1" d="M36 12h1v1h-1zM37 12h1v1h-1zM38 12h1v1h-1z"/><path fill="#C890F0" d="M39 12h1v1h-1zM40 12h1v1h-1zM41 12h1v1h-1z"/><path fill="#8D6ACC" d="M42 12h1v1h-1zM43 12h1v1h-1zM44 12h1v1h-1zM45 12h1v1h-1z"/><path fill="#7A5BB5" d="M46 12h1v1h-1zM47 12h1v1h-1zM48 12h1v1h-1z"/><path fill="#292B2D" d="M49 12h1v1h-1zM50 12h1v1h-1zM51 12h1v1h-1zM0 13h1v1H0zM1 13h1v1H1zM2 13h1v1H2z"/><path fill="#7A5BB5" d="M3 13h1v1H3zM4 13h1v1H4zM5 13h1v1H5zM6 13h1v1H6z"/><path fill="#8D6ACC" d="M7 13h1v1H7zM8 13h1v1H8zM9 13h1v1H9z"/><path fill="#64479E" d="M10 13h1v1h-1zM11 13h1v1h-1zM12 13h1v1h-1z"/><path fill="#5D3A9A" d="M13 13h1v1h-1zM14 13h1v1h-1zM15 13h1v1h-1zM16 13h1v1h-1zM17 13h1v1h-1zM18 13h1v1h-1zM19 13h1v1h-1z"/><path fill="#7A5BB5" d="M20 13h1v1h-1zM21 13h1v1h-1zM22 13h1v1h-1z"/><path fill="#64479E" d="M23 13h1v1h-1zM24 13h1v1h-1zM25 13h1v1h-1zM26 13h1v1h-1zM27 13h1v1h-1zM28 13h1v1h-1z"/><path fill="#7A5BB5" d="M29 13h1v1h-1zM30 13h1v1h-1zM31 13h1v1h-1zM32 13h1v1h-1z"/><path fill="#64479E" d="M33 13h1v1h-1zM34 13h1v1h-1zM35 13h1v1h-1z"/><path fill="#A678F1" d="M36 13h1v1h-1zM37 13h1v1h-1zM38 13h1v1h-1z"/><path fill="#C890F0" d="M39 13h1v1h-1zM40 13h1v1h-1zM41 13h1v1h-1z"/><path fill="#8D6ACC" d="M42 13h1v1h-1zM43 13h1v1h-1zM44 13h1v1h-1zM45 13h1v1h-1z"/><path fill="#7A5BB5" d="M46 13h1v1h-1zM47 13h1v1h-1zM48 13h1v1h-1z"/><path fill="#292B2D" d="M49 13h1v1h-1zM50 13h1v1h-1zM51 13h1v1h-1z"/><path fill="#181818" d="M0 14h1v1H0zM1 14h1v1H1zM2 14h1v1H2z"/><path fill="#8D6ACC" d="M3 14h1v1H3zM4 14h1v1H4zM5 14h1v1H5zM6 14h1v1H6z"/><path fill="#C890F0" d="M7 14h1v1H7zM8 14h1v1H8zM9 14h1v1H9z"/><path fill="#7A5BB5" d="M10 14h1v1h-1zM11 14h1v1h-1zM12 14h1v1h-1z"/><path fill="#5D3A9A" d="M13 14h1v1h-1zM14 14h1v1h-1zM15 14h1v1h-1z"/><path fill="#64479E" d="M16 14h1v1h-1zM17 14h1v1h-1zM18 14h1v1h-1zM19 14h1v1h-1zM20 14h1v1h-1zM21 14h1v1h-1zM22 14h1v1h-1zM23 14h1v1h-1zM24 14h1v1h-1zM25 14h1v1h-1z"/><path fill="#7A5BB5" d="M26 14h1v1h-1zM27 14h1v1h-1zM28 14h1v1h-1z"/><path fill="#8D6ACC" d="M29 14h1v1h-1zM30 14h1v1h-1zM31 14h1v1h-1zM32 14h1v1h-1z"/><path fill="#64479E" d="M33 14h1v1h-1zM34 14h1v1h-1zM35 14h1v1h-1z"/><path fill="#7A5BB5" d="M36 14h1v1h-1zM37 14h1v1h-1zM38 14h1v1h-1z"/><path fill="#8D6ACC" d="M39 14h1v1h-1zM40 14h1v1h-1zM41 14h1v1h-1z"/><path fill="#64479E" d="M42 14h1v1h-1zM43 14h1v1h-1zM44 14h1v1h-1zM45 14h1v1h-1z"/><path fill="#5D3A9A" d="M46 14h1v1h-1zM47 14h1v1h-1zM48 14h1v1h-1z"/><path fill="#181818" d="M49 14h1v1h-1zM50 14h1v1h-1zM51 14h1v1h-1zM0 15h1v1H0zM1 15h1v1H1zM2 15h1v1H2z"/><path fill="#8D6ACC" d="M3 15h1v1H3zM4 15h1v1H4zM5 15h1v1H5zM6 15h1v1H6z"/><path fill="#C890F0" d="M7 15h1v1H7zM8 15h1v1H8zM9 15h1v1H9z"/><path fill="#7A5BB5" d="M10 15h1v1h-1zM11 15h1v1h-1zM12 15h1v1h-1z"/><path fill="#5D3A9A" d="M13 15h1v1h-1zM14 15h1v1h-1zM15 15h1v1h-1z"/><path fill="#64479E" d="M16 15h1v1h-1zM17 15h1v1h-1zM18 15h1v1h-1zM19 15h1v1h-1zM20 15h1v1h-1z"/><path d="M21 15h1v1h-1zM22 15h1v1h-1zM23 15h1v1h-1zM24 15h1v1h-1zM25 15h1v1h-1zM26 15h1v1h-1zM27 15h1v1h-1zM28 15h1v1h-1zM29 15h1v1h-1zM30 15h1v1h-1z"/><path fill="#8D6ACC" d="M31 15h1v1h-1zM32 15h1v1h-1z"/><path fill="#64479E" d="M33 15h1v1h-1zM34 15h1v1h-1zM35 15h1v1h-1z"/><path fill="#7A5BB5" d="M36 15h1v1h-1zM37 15h1v1h-1zM38 15h1v1h-1z"/><path fill="#8D6ACC" d="M39 15h1v1h-1zM40 15h1v1h-1zM41 15h1v1h-1z"/><path fill="#64479E" d="M42 15h1v1h-1zM43 15h1v1h-1zM44 15h1v1h-1zM45 15h1v1h-1z"/><path fill="#5D3A9A" d="M46 15h1v1h-1zM47 15h1v1h-1zM48 15h1v1h-1z"/><path fill="#181818" d="M49 15h1v1h-1zM50 15h1v1h-1zM51 15h1v1h-1zM0 16h1v1H0zM1 16h1v1H1zM2 16h1v1H2z"/><path fill="#8D6ACC" d="M3 16h1v1H3zM4 16h1v1H4zM5 16h1v1H5zM6 16h1v1H6z"/><path fill="#C890F0" d="M7 16h1v1H7zM8 16h1v1H8zM9 16h1v1H9z"/><path fill="#7A5BB5" d="M10 16h1v1h-1zM11 16h1v1h-1zM12 16h1v1h-1z"/><path fill="#5D3A9A" d="M13 16h1v1h-1zM14 16h1v1h-1zM15 16h1v1h-1z"/><path fill="#64479E" d="M16 16h1v1h-1zM17 16h1v1h-1z"/><path d="M18 16h1v1h-1zM19 16h1v1h-1zM20 16h1v1h-1z"/><path fill="#4B4D59" d="M21 16h1v1h-1zM22 16h1v1h-1zM23 16h1v1h-1zM24 16h1v1h-1zM25 16h1v1h-1zM26 16h1v1h-1zM27 16h1v1h-1zM28 16h1v1h-1zM29 16h1v1h-1zM30 16h1v1h-1z"/><path d="M31 16h1v1h-1zM32 16h1v1h-1zM33 16h1v1h-1z"/><path fill="#64479E" d="M34 16h1v1h-1zM35 16h1v1h-1z"/><path fill="#7A5BB5" d="M36 16h1v1h-1zM37 16h1v1h-1zM38 16h1v1h-1z"/><path fill="#8D6ACC" d="M39 16h1v1h-1zM40 16h1v1h-1zM41 16h1v1h-1z"/><path fill="#64479E" d="M42 16h1v1h-1zM43 16h1v1h-1zM44 16h1v1h-1zM45 16h1v1h-1z"/><path fill="#5D3A9A" d="M46 16h1v1h-1zM47 16h1v1h-1zM48 16h1v1h-1z"/><path fill="#181818" d="M49 16h1v1h-1zM50 16h1v1h-1zM51 16h1v1h-1zM0 17h1v1H0zM1 17h1v1H1zM2 17h1v1H2z"/><path fill="#A678F1" d="M3 17h1v1H3zM4 17h1v1H4zM5 17h1v1H5zM6 17h1v1H6z"/><path fill="#FECBE6" d="M7 17h1v1H7zM8 17h1v1H8zM9 17h1v1H9z"/><path fill="#8D6ACC" d="M10 17h1v1h-1zM11 17h1v1h-1zM12 17h1v1h-1z"/><path fill="#7A5BB5" d="M13 17h1v1h-1zM14 17h1v1h-1zM15 17h1v1h-1z"/><path d="M16 17h1v1h-1zM17 17h1v1h-1z"/><path fill="#2C2C2F" d="M18 17h1v1h-1z"/><path fill="#4B4D59" d="M19 17h1v1h-1zM20 17h1v1h-1zM21 17h1v1h-1zM22 17h1v1h-1zM23 17h1v1h-1zM24 17h1v1h-1zM25 17h1v1h-1zM26 17h1v1h-1zM27 17h1v1h-1zM28 17h1v1h-1zM29 17h1v1h-1zM30 17h1v1h-1zM31 17h1v1h-1zM32 17h1v1h-1zM33 17h1v1h-1z"/><path d="M34 17h1v1h-1zM35 17h1v1h-1z"/><path fill="#7A5BB5" d="M36 17h1v1h-1zM37 17h1v1h-1zM38 17h1v1h-1zM39 17h1v1h-1zM40 17h1v1h-1zM41 17h1v1h-1z"/><path fill="#5D3A9A" d="M42 17h1v1h-1zM43 17h1v1h-1zM44 17h1v1h-1zM45 17h1v1h-1z"/><path fill="#64479E" d="M46 17h1v1h-1zM47 17h1v1h-1zM48 17h1v1h-1z"/><path fill="#181818" d="M49 17h1v1h-1zM50 17h1v1h-1zM51 17h1v1h-1zM0 18h1v1H0zM1 18h1v1H1zM2 18h1v1H2z"/><path fill="#A678F1" d="M3 18h1v1H3zM4 18h1v1H4zM5 18h1v1H5zM6 18h1v1H6z"/><path fill="#FECBE6" d="M7 18h1v1H7zM8 18h1v1H8zM9 18h1v1H9z"/><path d="M10 18h1v1h-1zM11 18h1v1h-1z"/><path fill="#8D6ACC" d="M12 18h1v1h-1z"/><path fill="#7A5BB5" d="M13 18h1v1h-1zM14 18h1v1h-1z"/><path d="M15 18h1v1h-1z"/><path fill="#2C2C2F" d="M16 18h1v1h-1z"/><path fill="#4B4D59" d="M17 18h1v1h-1zM18 18h1v1h-1zM19 18h1v1h-1zM20 18h1v1h-1zM21 18h1v1h-1zM22 18h1v1h-1zM23 18h1v1h-1zM24 18h1v1h-1zM25 18h1v1h-1zM26 18h1v1h-1zM27 18h1v1h-1zM28 18h1v1h-1zM29 18h1v1h-1z"/><path fill="#5D5E83" d="M30 18h1v1h-1z"/><path fill="#4B4D59" d="M31 18h1v1h-1zM32 18h1v1h-1zM33 18h1v1h-1zM34 18h1v1h-1zM35 18h1v1h-1z"/><path d="M36 18h1v1h-1z"/><path fill="#7A5BB5" d="M37 18h1v1h-1zM38 18h1v1h-1zM39 18h1v1h-1zM40 18h1v1h-1z"/><path d="M41 18h1v1h-1zM42 18h1v1h-1z"/><path fill="#5D3A9A" d="M43 18h1v1h-1zM44 18h1v1h-1zM45 18h1v1h-1z"/><path fill="#64479E" d="M46 18h1v1h-1zM47 18h1v1h-1zM48 18h1v1h-1z"/><path fill="#181818" d="M49 18h1v1h-1zM50 18h1v1h-1zM51 18h1v1h-1zM0 19h1v1H0zM1 19h1v1H1zM2 19h1v1H2z"/><path fill="#A678F1" d="M3 19h1v1H3zM4 19h1v1H4zM5 19h1v1H5zM6 19h1v1H6z"/><path fill="#FECBE6" d="M7 19h1v1H7zM8 19h1v1H8z"/><path d="M9 19h1v1H9z"/><path fill="#454B52" d="M10 19h1v1h-1z"/><path d="M11 19h1v1h-1z"/><path fill="#8D6ACC" d="M12 19h1v1h-1z"/><path fill="#7A5BB5" d="M13 19h1v1h-1z"/><path d="M14 19h1v1h-1z"/><path fill="#2C2C2F" d="M15 19h1v1h-1z"/><path fill="#4B4D59" d="M16 19h1v1h-1zM17 19h1v1h-1zM18 19h1v1h-1zM19 19h1v1h-1zM20 19h1v1h-1zM21 19h1v1h-1zM22 19h1v1h-1zM23 19h1v1h-1zM24 19h1v1h-1zM25 19h1v1h-1zM26 19h1v1h-1zM27 19h1v1h-1zM28 19h1v1h-1zM29 19h1v1h-1zM30 19h1v1h-1zM31 19h1v1h-1zM32 19h1v1h-1z"/><path fill="#5D5E83" d="M33 19h1v1h-1zM34 19h1v1h-1z"/><path fill="#4B4D59" d="M35 19h1v1h-1zM36 19h1v1h-1z"/><path d="M37 19h1v1h-1z"/><path fill="#7A5BB5" d="M38 19h1v1h-1zM39 19h1v1h-1zM40 19h1v1h-1z"/><path d="M41 19h1v1h-1z"/><path fill="#454B52" d="M42 19h1v1h-1z"/><path d="M43 19h1v1h-1z"/><path fill="#5D3A9A" d="M44 19h1v1h-1zM45 19h1v1h-1z"/><path fill="#64479E" d="M46 19h1v1h-1zM47 19h1v1h-1zM48 19h1v1h-1z"/><path fill="#181818" d="M49 19h1v1h-1zM50 19h1v1h-1zM51 19h1v1h-1zM0 20h1v1H0zM1 20h1v1H1zM2 20h1v1H2z"/><path fill="#FECBE6" d="M3 20h1v1H3zM4 20h1v1H4zM5 20h1v1H5zM6 20h1v1H6zM7 20h1v1H7z"/><path d="M8 20h1v1H8z"/><path fill="#454B52" d="M9 20h1v1H9z"/><path fill="#292B2D" d="M10 20h1v1h-1z"/><path d="M11 20h1v1h-1z"/><path fill="#A678F1" d="M12 20h1v1h-1zM13 20h1v1h-1z"/><path d="M14 20h1v1h-1z"/><path fill="#2C2C2F" d="M15 20h1v1h-1z"/><path fill="#4B4D59" d="M16 20h1v1h-1zM17 20h1v1h-1zM18 20h1v1h-1zM19 20h1v1h-1zM20 20h1v1h-1zM21 20h1v1h-1zM22 20h1v1h-1zM23 20h1v1h-1zM24 20h1v1h-1zM25 20h1v1h-1zM26 20h1v1h-1zM27 20h1v1h-1zM28 20h1v1h-1zM29 20h1v1h-1zM30 20h1v1h-1zM31 20h1v1h-1z"/><path fill="#5D5E83" d="M32 20h1v1h-1zM33 20h1v1h-1zM34 20h1v1h-1zM35 20h1v1h-1z"/><path fill="#4B4D59" d="M36 20h1v1h-1z"/><path d="M37 20h1v1h-1z"/><path fill="#7A5BB5" d="M38 20h1v1h-1z"/><path fill="#64479E" d="M39 20h1v1h-1zM40 20h1v1h-1z"/><path d="M41 20h1v1h-1z"/><path fill="#292B2D" d="M42 20h1v1h-1z"/><path fill="#454B52" d="M43 20h1v1h-1z"/><path d="M44 20h1v1h-1z"/><path fill="#64479E" d="M45 20h1v1h-1zM46 20h1v1h-1zM47 20h1v1h-1zM48 20h1v1h-1z"/><path fill="#181818" d="M49 20h1v1h-1zM50 20h1v1h-1zM51 20h1v1h-1zM0 21h1v1H0zM1 21h1v1H1zM2 21h1v1H2z"/><path fill="#FECBE6" d="M3 21h1v1H3zM4 21h1v1H4zM5 21h1v1H5zM6 21h1v1H6zM7 21h1v1H7z"/><path d="M8 21h1v1H8z"/><path fill="#454B52" d="M9 21h1v1H9z"/><path fill="#292B2D" d="M10 21h1v1h-1z"/><path d="M11 21h1v1h-1z"/><path fill="#A678F1" d="M12 21h1v1h-1z"/><path d="M13 21h1v1h-1z"/><path fill="#2C2C2F" d="M14 21h1v1h-1zM15 21h1v1h-1z"/><path fill="#4B4D59" d="M16 21h1v1h-1zM17 21h1v1h-1zM18 21h1v1h-1zM19 21h1v1h-1zM20 21h1v1h-1zM21 21h1v1h-1zM22 21h1v1h-1zM23 21h1v1h-1zM24 21h1v1h-1zM25 21h1v1h-1zM26 21h1v1h-1zM27 21h1v1h-1zM28 21h1v1h-1zM29 21h1v1h-1zM30 21h1v1h-1zM31 21h1v1h-1z"/><path fill="#5D5E83" d="M32 21h1v1h-1zM33 21h1v1h-1zM34 21h1v1h-1zM35 21h1v1h-1z"/><path fill="#4B4D59" d="M36 21h1v1h-1zM37 21h1v1h-1z"/><path d="M38 21h1v1h-1z"/><path fill="#64479E" d="M39 21h1v1h-1zM40 21h1v1h-1z"/><path d="M41 21h1v1h-1z"/><path fill="#292B2D" d="M42 21h1v1h-1z"/><path fill="#454B52" d="M43 21h1v1h-1z"/><path d="M44 21h1v1h-1z"/><path fill="#64479E" d="M45 21h1v1h-1zM46 21h1v1h-1zM47 21h1v1h-1zM48 21h1v1h-1z"/><path fill="#181818" d="M49 21h1v1h-1zM50 21h1v1h-1zM51 21h1v1h-1zM0 22h1v1H0zM1 22h1v1H1zM2 22h1v1H2z"/><path fill="#FECBE6" d="M3 22h1v1H3zM4 22h1v1H4zM5 22h1v1H5zM6 22h1v1H6z"/><path d="M7 22h1v1H7z"/><path fill="#454B52" d="M8 22h1v1H8z"/><path fill="#292B2D" d="M9 22h1v1H9zM10 22h1v1h-1z"/><path fill="#181818" d="M11 22h1v1h-1z"/><path d="M12 22h1v1h-1zM13 22h1v1h-1zM14 22h1v1h-1zM15 22h1v1h-1z"/><path fill="#2C2C2F" d="M16 22h1v1h-1z"/><path fill="#4B4D59" d="M17 22h1v1h-1zM18 22h1v1h-1zM19 22h1v1h-1zM20 22h1v1h-1zM21 22h1v1h-1z"/><path fill="#2C2C2F" d="M22 22h1v1h-1z"/><path fill="#4B4D59" d="M23 22h1v1h-1z"/><path fill="#2C2C2F" d="M24 22h1v1h-1zM25 22h1v1h-1zM26 22h1v1h-1zM27 22h1v1h-1zM28 22h1v1h-1zM29 22h1v1h-1z"/><path fill="#4B4D59" d="M30 22h1v1h-1zM31 22h1v1h-1zM32 22h1v1h-1z"/><path fill="#5D5E83" d="M33 22h1v1h-1zM34 22h1v1h-1z"/><path fill="#4B4D59" d="M35 22h1v1h-1z"/><path fill="#5D5E83" d="M36 22h1v1h-1z"/><path fill="#4B4D59" d="M37 22h1v1h-1z"/><path d="M38 22h1v1h-1zM39 22h1v1h-1zM40 22h1v1h-1z"/><path fill="#181818" d="M41 22h1v1h-1z"/><path fill="#292B2D" d="M42 22h1v1h-1zM43 22h1v1h-1z"/><path fill="#454B52" d="M44 22h1v1h-1z"/><path d="M45 22h1v1h-1z"/><path fill="#64479E" d="M46 22h1v1h-1zM47 22h1v1h-1zM48 22h1v1h-1z"/><path fill="#181818" d="M49 22h1v1h-1zM50 22h1v1h-1zM51 22h1v1h-1zM0 23h1v1H0zM1 23h1v1H1zM2 23h1v1H2z"/><path fill="#FECBE6" d="M3 23h1v1H3zM4 23h1v1H4zM5 23h1v1H5zM6 23h1v1H6z"/><path d="M7 23h1v1H7z"/><path fill="#454B52" d="M8 23h1v1H8z"/><path fill="#292B2D" d="M9 23h1v1H9zM10 23h1v1h-1z"/><path fill="#181818" d="M11 23h1v1h-1z"/><path fill="#292B2D" d="M12 23h1v1h-1zM13 23h1v1h-1zM14 23h1v1h-1z"/><path fill="#181818" d="M15 23h1v1h-1z"/><path d="M16 23h1v1h-1z"/><path fill="#4B4D59" d="M17 23h1v1h-1zM18 23h1v1h-1zM19 23h1v1h-1zM20 23h1v1h-1zM21 23h1v1h-1z"/><path fill="#2C2C2F" d="M22 23h1v1h-1z"/><path fill="#4B4D59" d="M23 23h1v1h-1z"/><path fill="#2C2C2F" d="M24 23h1v1h-1zM25 23h1v1h-1zM26 23h1v1h-1zM27 23h1v1h-1zM28 23h1v1h-1zM29 23h1v1h-1z"/><path fill="#4B4D59" d="M30 23h1v1h-1zM31 23h1v1h-1zM32 23h1v1h-1zM33 23h1v1h-1zM34 23h1v1h-1zM35 23h1v1h-1zM36 23h1v1h-1zM37 23h1v1h-1z"/><path d="M38 23h1v1h-1z"/><path fill="#181818" d="M39 23h1v1h-1z"/><path fill="#292B2D" d="M40 23h1v1h-1z"/><path fill="#181818" d="M41 23h1v1h-1z"/><path fill="#292B2D" d="M42 23h1v1h-1zM43 23h1v1h-1z"/><path fill="#454B52" d="M44 23h1v1h-1z"/><path d="M45 23h1v1h-1z"/><path fill="#64479E" d="M46 23h1v1h-1zM47 23h1v1h-1zM48 23h1v1h-1z"/><path fill="#181818" d="M49 23h1v1h-1zM50 23h1v1h-1zM51 23h1v1h-1zM0 24h1v1H0zM1 24h1v1H1zM2 24h1v1H2z"/><path fill="#8D6ACC" d="M3 24h1v1H3zM4 24h1v1H4zM5 24h1v1H5zM6 24h1v1H6z"/><path d="M7 24h1v1H7z"/><path fill="#292B2D" d="M8 24h1v1H8zM9 24h1v1H9zM10 24h1v1h-1zM11 24h1v1h-1zM12 24h1v1h-1zM13 24h1v1h-1zM14 24h1v1h-1zM15 24h1v1h-1z"/><path fill="#181818" d="M16 24h1v1h-1z"/><path d="M17 24h1v1h-1z"/><path fill="#4B4D59" d="M18 24h1v1h-1zM19 24h1v1h-1zM20 24h1v1h-1zM21 24h1v1h-1zM22 24h1v1h-1zM23 24h1v1h-1zM24 24h1v1h-1zM25 24h1v1h-1zM26 24h1v1h-1zM27 24h1v1h-1zM28 24h1v1h-1zM29 24h1v1h-1zM30 24h1v1h-1zM31 24h1v1h-1zM32 24h1v1h-1zM33 24h1v1h-1zM34 24h1v1h-1zM35 24h1v1h-1zM36 24h1v1h-1zM37 24h1v1h-1z"/><path d="M38 24h1v1h-1z"/><path fill="#181818" d="M39 24h1v1h-1z"/><path fill="#292B2D" d="M40 24h1v1h-1zM41 24h1v1h-1zM42 24h1v1h-1zM43 24h1v1h-1zM44 24h1v1h-1z"/><path d="M45 24h1v1h-1z"/><path fill="#8D6ACC" d="M46 24h1v1h-1zM47 24h1v1h-1zM48 24h1v1h-1z"/><path fill="#181818" d="M49 24h1v1h-1zM50 24h1v1h-1zM51 24h1v1h-1zM0 25h1v1H0zM1 25h1v1H1zM2 25h1v1H2z"/><path fill="#8D6ACC" d="M3 25h1v1H3zM4 25h1v1H4zM5 25h1v1H5zM6 25h1v1H6z"/><path d="M7 25h1v1H7z"/><path fill="#292B2D" d="M8 25h1v1H8zM9 25h1v1H9zM10 25h1v1h-1zM11 25h1v1h-1zM12 25h1v1h-1zM13 25h1v1h-1zM14 25h1v1h-1zM15 25h1v1h-1z"/><path fill="#181818" d="M16 25h1v1h-1z"/><path d="M17 25h1v1h-1z"/><path fill="#4B4D59" d="M18 25h1v1h-1zM19 25h1v1h-1zM20 25h1v1h-1zM21 25h1v1h-1zM22 25h1v1h-1zM23 25h1v1h-1zM24 25h1v1h-1zM25 25h1v1h-1z"/><path fill="#2C2C2F" d="M26 25h1v1h-1zM27 25h1v1h-1zM28 25h1v1h-1zM29 25h1v1h-1zM30 25h1v1h-1z"/><path fill="#4B4D59" d="M31 25h1v1h-1zM32 25h1v1h-1zM33 25h1v1h-1zM34 25h1v1h-1zM35 25h1v1h-1zM36 25h1v1h-1zM37 25h1v1h-1z"/><path d="M38 25h1v1h-1z"/><path fill="#181818" d="M39 25h1v1h-1z"/><path fill="#292B2D" d="M40 25h1v1h-1zM41 25h1v1h-1zM42 25h1v1h-1zM43 25h1v1h-1zM44 25h1v1h-1z"/><path d="M45 25h1v1h-1z"/><path fill="#8D6ACC" d="M46 25h1v1h-1zM47 25h1v1h-1zM48 25h1v1h-1z"/><path fill="#181818" d="M49 25h1v1h-1zM50 25h1v1h-1zM51 25h1v1h-1zM0 26h1v1H0zM1 26h1v1H1zM2 26h1v1H2z"/><path fill="#8D6ACC" d="M3 26h1v1H3zM4 26h1v1H4zM5 26h1v1H5zM6 26h1v1H6z"/><path d="M7 26h1v1H7z"/><path fill="#181818" d="M8 26h1v1H8z"/><path fill="#292B2D" d="M9 26h1v1H9zM10 26h1v1h-1zM11 26h1v1h-1zM12 26h1v1h-1zM13 26h1v1h-1zM14 26h1v1h-1zM15 26h1v1h-1z"/><path fill="#181818" d="M16 26h1v1h-1z"/><path d="M17 26h1v1h-1z"/><path fill="#4B4D59" d="M18 26h1v1h-1zM19 26h1v1h-1zM20 26h1v1h-1z"/><path fill="#181818" d="M21 26h1v1h-1zM22 26h1v1h-1zM23 26h1v1h-1z"/><path fill="#4B4D59" d="M24 26h1v1h-1zM25 26h1v1h-1zM26 26h1v1h-1zM27 26h1v1h-1zM28 26h1v1h-1zM29 26h1v1h-1zM30 26h1v1h-1zM31 26h1v1h-1z"/><path fill="#181818" d="M32 26h1v1h-1zM33 26h1v1h-1zM34 26h1v1h-1z"/><path fill="#4B4D59" d="M35 26h1v1h-1zM36 26h1v1h-1zM37 26h1v1h-1z"/><path d="M38 26h1v1h-1z"/><path fill="#181818" d="M39 26h1v1h-1z"/><path fill="#292B2D" d="M40 26h1v1h-1zM41 26h1v1h-1zM42 26h1v1h-1zM43 26h1v1h-1z"/><path fill="#181818" d="M44 26h1v1h-1z"/><path d="M45 26h1v1h-1z"/><path fill="#8D6ACC" d="M46 26h1v1h-1zM47 26h1v1h-1zM48 26h1v1h-1z"/><path fill="#181818" d="M49 26h1v1h-1zM50 26h1v1h-1zM51 26h1v1h-1zM0 27h1v1H0zM1 27h1v1H1zM2 27h1v1H2z"/><path fill="#7A5BB5" d="M3 27h1v1H3zM4 27h1v1H4zM5 27h1v1H5zM6 27h1v1H6z"/><path fill="#A678F1" d="M7 27h1v1H7z"/><path d="M8 27h1v1H8z"/><path fill="#181818" d="M9 27h1v1H9zM10 27h1v1h-1z"/><path fill="#292B2D" d="M11 27h1v1h-1zM12 27h1v1h-1zM13 27h1v1h-1zM14 27h1v1h-1z"/><path fill="#181818" d="M15 27h1v1h-1zM16 27h1v1h-1z"/><path d="M17 27h1v1h-1z"/><path fill="#4B4D59" d="M18 27h1v1h-1zM19 27h1v1h-1z"/><path fill="#181818" d="M20 27h1v1h-1z"/><path fill="#999" d="M21 27h1v1h-1zM22 27h1v1h-1zM23 27h1v1h-1z"/><path fill="#181818" d="M24 27h1v1h-1zM25 27h1v1h-1zM26 27h1v1h-1z"/><path fill="#4B4D59" d="M27 27h1v1h-1zM28 27h1v1h-1zM29 27h1v1h-1z"/><path fill="#181818" d="M30 27h1v1h-1zM31 27h1v1h-1z"/><path fill="#999" d="M32 27h1v1h-1zM33 27h1v1h-1zM34 27h1v1h-1z"/><path fill="#181818" d="M35 27h1v1h-1z"/><path fill="#4B4D59" d="M36 27h1v1h-1zM37 27h1v1h-1z"/><path d="M38 27h1v1h-1z"/><path fill="#181818" d="M39 27h1v1h-1z"/><path fill="#292B2D" d="M40 27h1v1h-1zM41 27h1v1h-1z"/><path fill="#181818" d="M42 27h1v1h-1zM43 27h1v1h-1z"/><path d="M44 27h1v1h-1z"/><path fill="#8D6ACC" d="M45 27h1v1h-1z"/><path fill="#A678F1" d="M46 27h1v1h-1zM47 27h1v1h-1zM48 27h1v1h-1z"/><path fill="#181818" d="M49 27h1v1h-1zM50 27h1v1h-1zM51 27h1v1h-1zM0 28h1v1H0zM1 28h1v1H1zM2 28h1v1H2z"/><path fill="#7A5BB5" d="M3 28h1v1H3zM4 28h1v1H4zM5 28h1v1H5zM6 28h1v1H6z"/><path fill="#A678F1" d="M7 28h1v1H7zM8 28h1v1H8z"/><path d="M9 28h1v1H9zM10 28h1v1h-1z"/><path fill="#181818" d="M11 28h1v1h-1zM12 28h1v1h-1zM13 28h1v1h-1zM14 28h1v1h-1zM15 28h1v1h-1z"/><path d="M16 28h1v1h-1z"/><path fill="#2C2C2F" d="M17 28h1v1h-1z"/><path fill="#4B4D59" d="M18 28h1v1h-1zM19 28h1v1h-1z"/><path fill="#181818" d="M20 28h1v1h-1z"/><path fill="#999" d="M21 28h1v1h-1zM22 28h1v1h-1zM23 28h1v1h-1zM24 28h1v1h-1zM25 28h1v1h-1zM26 28h1v1h-1z"/><path fill="#181818" d="M27 28h1v1h-1z"/><path fill="#4B4D59" d="M28 28h1v1h-1z"/><path fill="#181818" d="M29 28h1v1h-1z"/><path fill="#999" d="M30 28h1v1h-1zM31 28h1v1h-1zM32 28h1v1h-1zM33 28h1v1h-1zM34 28h1v1h-1z"/><path fill="#181818" d="M35 28h1v1h-1z"/><path fill="#4B4D59" d="M36 28h1v1h-1zM37 28h1v1h-1z"/><path d="M38 28h1v1h-1z"/><path fill="#181818" d="M39 28h1v1h-1zM40 28h1v1h-1zM41 28h1v1h-1z"/><path d="M42 28h1v1h-1zM43 28h1v1h-1z"/><path fill="#8D6ACC" d="M44 28h1v1h-1zM45 28h1v1h-1z"/><path fill="#A678F1" d="M46 28h1v1h-1zM47 28h1v1h-1zM48 28h1v1h-1z"/><path fill="#181818" d="M49 28h1v1h-1zM50 28h1v1h-1zM51 28h1v1h-1zM0 29h1v1H0zM1 29h1v1H1zM2 29h1v1H2z"/><path fill="#7A5BB5" d="M3 29h1v1H3zM4 29h1v1H4zM5 29h1v1H5zM6 29h1v1H6z"/><path fill="#A678F1" d="M7 29h1v1H7zM8 29h1v1H8zM9 29h1v1H9z"/><path fill="#64479E" d="M10 29h1v1h-1z"/><path d="M11 29h1v1h-1zM12 29h1v1h-1zM13 29h1v1h-1zM14 29h1v1h-1zM15 29h1v1h-1z"/><path fill="#2C2C2F" d="M16 29h1v1h-1z"/><path fill="#4B4D59" d="M17 29h1v1h-1zM18 29h1v1h-1zM19 29h1v1h-1z"/><path fill="#181818" d="M20 29h1v1h-1z"/><path fill="#999" d="M21 29h1v1h-1zM22 29h1v1h-1zM23 29h1v1h-1zM24 29h1v1h-1zM25 29h1v1h-1zM26 29h1v1h-1z"/><path fill="#181818" d="M27 29h1v1h-1z"/><path fill="#4B4D59" d="M28 29h1v1h-1z"/><path fill="#181818" d="M29 29h1v1h-1z"/><path fill="#999" d="M30 29h1v1h-1zM31 29h1v1h-1zM32 29h1v1h-1zM33 29h1v1h-1zM34 29h1v1h-1z"/><path fill="#181818" d="M35 29h1v1h-1z"/><path fill="#4B4D59" d="M36 29h1v1h-1zM37 29h1v1h-1z"/><path d="M38 29h1v1h-1zM39 29h1v1h-1zM40 29h1v1h-1zM41 29h1v1h-1z"/><path fill="#8D6ACC" d="M42 29h1v1h-1zM43 29h1v1h-1zM44 29h1v1h-1zM45 29h1v1h-1z"/><path fill="#A678F1" d="M46 29h1v1h-1zM47 29h1v1h-1zM48 29h1v1h-1z"/><path fill="#181818" d="M49 29h1v1h-1zM50 29h1v1h-1zM51 29h1v1h-1zM0 30h1v1H0zM1 30h1v1H1zM2 30h1v1H2z"/><path fill="#7A5BB5" d="M3 30h1v1H3zM4 30h1v1H4zM5 30h1v1H5zM6 30h1v1H6zM7 30h1v1H7zM8 30h1v1H8zM9 30h1v1H9z"/><path fill="#8D6ACC" d="M10 30h1v1h-1zM11 30h1v1h-1zM12 30h1v1h-1z"/><path d="M13 30h1v1h-1z"/><path fill="#2C2C2F" d="M14 30h1v1h-1zM15 30h1v1h-1zM16 30h1v1h-1z"/><path fill="#4B4D59" d="M17 30h1v1h-1zM18 30h1v1h-1zM19 30h1v1h-1z"/><path fill="#181818" d="M20 30h1v1h-1z"/><path fill="#999" d="M21 30h1v1h-1zM22 30h1v1h-1zM23 30h1v1h-1zM24 30h1v1h-1zM25 30h1v1h-1zM26 30h1v1h-1z"/><path fill="#181818" d="M27 30h1v1h-1z"/><path fill="#4B4D59" d="M28 30h1v1h-1z"/><path fill="#181818" d="M29 30h1v1h-1z"/><path fill="#999" d="M30 30h1v1h-1zM31 30h1v1h-1zM32 30h1v1h-1zM33 30h1v1h-1zM34 30h1v1h-1z"/><path fill="#181818" d="M35 30h1v1h-1z"/><path fill="#4B4D59" d="M36 30h1v1h-1zM37 30h1v1h-1z"/><path d="M38 30h1v1h-1z"/><path fill="#7A5BB5" d="M39 30h1v1h-1zM40 30h1v1h-1zM41 30h1v1h-1z"/><path fill="#A678F1" d="M42 30h1v1h-1zM43 30h1v1h-1zM44 30h1v1h-1zM45 30h1v1h-1z"/><path fill="#C890F0" d="M46 30h1v1h-1zM47 30h1v1h-1zM48 30h1v1h-1z"/><path fill="#181818" d="M49 30h1v1h-1zM50 30h1v1h-1zM51 30h1v1h-1zM0 31h1v1H0zM1 31h1v1H1zM2 31h1v1H2z"/><path fill="#7A5BB5" d="M3 31h1v1H3zM4 31h1v1H4zM5 31h1v1H5zM6 31h1v1H6zM7 31h1v1H7zM8 31h1v1H8zM9 31h1v1H9z"/><path fill="#8D6ACC" d="M10 31h1v1h-1zM11 31h1v1h-1zM12 31h1v1h-1z"/><path d="M13 31h1v1h-1z"/><path fill="#2C2C2F" d="M14 31h1v1h-1zM15 31h1v1h-1z"/><path fill="#4B4D59" d="M16 31h1v1h-1zM17 31h1v1h-1zM18 31h1v1h-1zM19 31h1v1h-1z"/><path fill="#2C2C2F" d="M20 31h1v1h-1z"/><path fill="#181818" d="M21 31h1v1h-1z"/><path fill="#999" d="M22 31h1v1h-1zM23 31h1v1h-1zM24 31h1v1h-1zM25 31h1v1h-1zM26 31h1v1h-1z"/><path fill="#181818" d="M27 31h1v1h-1z"/><path fill="#4B4D59" d="M28 31h1v1h-1z"/><path fill="#181818" d="M29 31h1v1h-1z"/><path fill="#999" d="M30 31h1v1h-1zM31 31h1v1h-1zM32 31h1v1h-1zM33 31h1v1h-1z"/><path fill="#181818" d="M34 31h1v1h-1z"/><path fill="#2C2C2F" d="M35 31h1v1h-1z"/><path fill="#4B4D59" d="M36 31h1v1h-1z"/><path fill="#2C2C2F" d="M37 31h1v1h-1z"/><path d="M38 31h1v1h-1z"/><path fill="#7A5BB5" d="M39 31h1v1h-1zM40 31h1v1h-1zM41 31h1v1h-1z"/><path fill="#A678F1" d="M42 31h1v1h-1zM43 31h1v1h-1zM44 31h1v1h-1zM45 31h1v1h-1z"/><path fill="#C890F0" d="M46 31h1v1h-1zM47 31h1v1h-1zM48 31h1v1h-1z"/><path fill="#181818" d="M49 31h1v1h-1zM50 31h1v1h-1zM51 31h1v1h-1zM0 32h1v1H0zM1 32h1v1H1zM2 32h1v1H2z"/><path fill="#7A5BB5" d="M3 32h1v1H3zM4 32h1v1H4zM5 32h1v1H5zM6 32h1v1H6zM7 32h1v1H7zM8 32h1v1H8zM9 32h1v1H9z"/><path fill="#8D6ACC" d="M10 32h1v1h-1zM11 32h1v1h-1zM12 32h1v1h-1z"/><path fill="#A678F1" d="M13 32h1v1h-1z"/><path d="M14 32h1v1h-1z"/><path fill="#2C2C2F" d="M15 32h1v1h-1z"/><path fill="#4B4D59" d="M16 32h1v1h-1zM17 32h1v1h-1zM18 32h1v1h-1zM19 32h1v1h-1zM20 32h1v1h-1z"/><path fill="#2C2C2F" d="M21 32h1v1h-1z"/><path fill="#181818" d="M22 32h1v1h-1zM23 32h1v1h-1zM24 32h1v1h-1zM25 32h1v1h-1zM26 32h1v1h-1z"/><path fill="#2C2C2F" d="M27 32h1v1h-1z"/><path fill="#4B4D59" d="M28 32h1v1h-1z"/><path fill="#2C2C2F" d="M29 32h1v1h-1z"/><path fill="#181818" d="M30 32h1v1h-1zM31 32h1v1h-1zM32 32h1v1h-1zM33 32h1v1h-1z"/><path fill="#2C2C2F" d="M34 32h1v1h-1z"/><path fill="#4B4D59" d="M35 32h1v1h-1zM36 32h1v1h-1z"/><path d="M37 32h1v1h-1z"/><path fill="#8D6ACC" d="M38 32h1v1h-1z"/><path fill="#7A5BB5" d="M39 32h1v1h-1zM40 32h1v1h-1zM41 32h1v1h-1z"/><path fill="#A678F1" d="M42 32h1v1h-1zM43 32h1v1h-1zM44 32h1v1h-1zM45 32h1v1h-1z"/><path fill="#C890F0" d="M46 32h1v1h-1zM47 32h1v1h-1zM48 32h1v1h-1z"/><path fill="#181818" d="M49 32h1v1h-1zM50 32h1v1h-1zM51 32h1v1h-1zM0 33h1v1H0zM1 33h1v1H1zM2 33h1v1H2z"/><path fill="#7A5BB5" d="M3 33h1v1H3zM4 33h1v1H4zM5 33h1v1H5zM6 33h1v1H6zM7 33h1v1H7zM8 33h1v1H8zM9 33h1v1H9z"/><path fill="#8D6ACC" d="M10 33h1v1h-1zM11 33h1v1h-1zM12 33h1v1h-1z"/><path fill="#A678F1" d="M13 33h1v1h-1z"/><path d="M14 33h1v1h-1z"/><path fill="#2C2C2F" d="M15 33h1v1h-1z"/><path fill="#4B4D59" d="M16 33h1v1h-1zM17 33h1v1h-1zM18 33h1v1h-1zM19 33h1v1h-1zM20 33h1v1h-1zM21 33h1v1h-1zM22 33h1v1h-1zM23 33h1v1h-1zM24 33h1v1h-1zM25 33h1v1h-1zM26 33h1v1h-1zM27 33h1v1h-1zM28 33h1v1h-1zM29 33h1v1h-1zM30 33h1v1h-1zM31 33h1v1h-1zM32 33h1v1h-1zM33 33h1v1h-1zM34 33h1v1h-1zM35 33h1v1h-1zM36 33h1v1h-1z"/><path d="M37 33h1v1h-1z"/><path fill="#8D6ACC" d="M38 33h1v1h-1z"/><path fill="#7A5BB5" d="M39 33h1v1h-1zM40 33h1v1h-1zM41 33h1v1h-1z"/><path fill="#A678F1" d="M42 33h1v1h-1zM43 33h1v1h-1zM44 33h1v1h-1zM45 33h1v1h-1z"/><path fill="#C890F0" d="M46 33h1v1h-1zM47 33h1v1h-1zM48 33h1v1h-1z"/><path fill="#181818" d="M49 33h1v1h-1zM50 33h1v1h-1zM51 33h1v1h-1zM0 34h1v1H0zM1 34h1v1H1zM2 34h1v1H2z"/><path fill="#7A5BB5" d="M3 34h1v1H3zM4 34h1v1H4zM5 34h1v1H5zM6 34h1v1H6z"/><path fill="#8D6ACC" d="M7 34h1v1H7zM8 34h1v1H8zM9 34h1v1H9z"/><path fill="#A678F1" d="M10 34h1v1h-1zM11 34h1v1h-1zM12 34h1v1h-1z"/><path fill="#C890F0" d="M13 34h1v1h-1z"/><path d="M14 34h1v1h-1z"/><path fill="#2C2C2F" d="M15 34h1v1h-1zM16 34h1v1h-1z"/><path fill="#4B4D59" d="M17 34h1v1h-1zM18 34h1v1h-1zM19 34h1v1h-1zM20 34h1v1h-1zM21 34h1v1h-1zM22 34h1v1h-1zM23 34h1v1h-1zM24 34h1v1h-1zM25 34h1v1h-1zM26 34h1v1h-1zM27 34h1v1h-1zM28 34h1v1h-1zM29 34h1v1h-1zM30 34h1v1h-1zM31 34h1v1h-1zM32 34h1v1h-1zM33 34h1v1h-1zM34 34h1v1h-1zM35 34h1v1h-1z"/><path fill="#2C2C2F" d="M36 34h1v1h-1z"/><path d="M37 34h1v1h-1z"/><path fill="#A678F1" d="M38 34h1v1h-1z"/><path fill="#8D6ACC" d="M39 34h1v1h-1zM40 34h1v1h-1zM41 34h1v1h-1z"/><path fill="#7A5BB5" d="M42 34h1v1h-1zM43 34h1v1h-1zM44 34h1v1h-1zM45 34h1v1h-1z"/><path fill="#8D6ACC" d="M46 34h1v1h-1zM47 34h1v1h-1zM48 34h1v1h-1z"/><path fill="#181818" d="M49 34h1v1h-1zM50 34h1v1h-1zM51 34h1v1h-1zM0 35h1v1H0zM1 35h1v1H1zM2 35h1v1H2z"/><path fill="#7A5BB5" d="M3 35h1v1H3zM4 35h1v1H4zM5 35h1v1H5zM6 35h1v1H6z"/><path fill="#8D6ACC" d="M7 35h1v1H7zM8 35h1v1H8zM9 35h1v1H9z"/><path fill="#A678F1" d="M10 35h1v1h-1zM11 35h1v1h-1zM12 35h1v1h-1z"/><path fill="#C890F0" d="M13 35h1v1h-1zM14 35h1v1h-1z"/><path d="M15 35h1v1h-1z"/><path fill="#2C2C2F" d="M16 35h1v1h-1zM17 35h1v1h-1zM18 35h1v1h-1zM19 35h1v1h-1z"/><path fill="#4B4D59" d="M20 35h1v1h-1zM21 35h1v1h-1zM22 35h1v1h-1zM23 35h1v1h-1zM24 35h1v1h-1zM25 35h1v1h-1zM26 35h1v1h-1zM27 35h1v1h-1zM28 35h1v1h-1zM29 35h1v1h-1zM30 35h1v1h-1zM31 35h1v1h-1zM32 35h1v1h-1zM33 35h1v1h-1z"/><path fill="#2C2C2F" d="M34 35h1v1h-1zM35 35h1v1h-1z"/><path d="M36 35h1v1h-1z"/><path fill="#A678F1" d="M37 35h1v1h-1zM38 35h1v1h-1z"/><path fill="#8D6ACC" d="M39 35h1v1h-1zM40 35h1v1h-1zM41 35h1v1h-1z"/><path fill="#7A5BB5" d="M42 35h1v1h-1zM43 35h1v1h-1zM44 35h1v1h-1zM45 35h1v1h-1z"/><path fill="#8D6ACC" d="M46 35h1v1h-1zM47 35h1v1h-1zM48 35h1v1h-1z"/><path fill="#181818" d="M49 35h1v1h-1zM50 35h1v1h-1zM51 35h1v1h-1zM0 36h1v1H0zM1 36h1v1H1zM2 36h1v1H2z"/><path fill="#7A5BB5" d="M3 36h1v1H3zM4 36h1v1H4zM5 36h1v1H5zM6 36h1v1H6z"/><path fill="#8D6ACC" d="M7 36h1v1H7zM8 36h1v1H8zM9 36h1v1H9z"/><path fill="#A678F1" d="M10 36h1v1h-1zM11 36h1v1h-1zM12 36h1v1h-1z"/><path fill="#C890F0" d="M13 36h1v1h-1zM14 36h1v1h-1zM15 36h1v1h-1z"/><path d="M16 36h1v1h-1zM17 36h1v1h-1zM18 36h1v1h-1z"/><path fill="#2C2C2F" d="M19 36h1v1h-1zM20 36h1v1h-1zM21 36h1v1h-1z"/><path fill="#4B4D59" d="M22 36h1v1h-1zM23 36h1v1h-1zM24 36h1v1h-1zM25 36h1v1h-1zM26 36h1v1h-1zM27 36h1v1h-1zM28 36h1v1h-1zM29 36h1v1h-1zM30 36h1v1h-1zM31 36h1v1h-1zM32 36h1v1h-1z"/><path fill="#2C2C2F" d="M33 36h1v1h-1z"/><path d="M34 36h1v1h-1zM35 36h1v1h-1z"/><path fill="#A678F1" d="M36 36h1v1h-1zM37 36h1v1h-1zM38 36h1v1h-1z"/><path fill="#8D6ACC" d="M39 36h1v1h-1zM40 36h1v1h-1zM41 36h1v1h-1z"/><path fill="#7A5BB5" d="M42 36h1v1h-1zM43 36h1v1h-1zM44 36h1v1h-1zM45 36h1v1h-1z"/><path fill="#8D6ACC" d="M46 36h1v1h-1zM47 36h1v1h-1zM48 36h1v1h-1z"/><path fill="#181818" d="M49 36h1v1h-1zM50 36h1v1h-1zM51 36h1v1h-1zM0 37h1v1H0zM1 37h1v1H1zM2 37h1v1H2z"/><path fill="#8D6ACC" d="M3 37h1v1H3zM4 37h1v1H4zM5 37h1v1H5zM6 37h1v1H6z"/><path fill="#A678F1" d="M7 37h1v1H7zM8 37h1v1H8zM9 37h1v1H9zM10 37h1v1h-1zM11 37h1v1h-1zM12 37h1v1h-1z"/><path fill="#C890F0" d="M13 37h1v1h-1zM14 37h1v1h-1zM15 37h1v1h-1z"/><path fill="#A678F1" d="M16 37h1v1h-1zM17 37h1v1h-1z"/><path d="M18 37h1v1h-1z"/><path fill="#2C2C2F" d="M19 37h1v1h-1z"/><path fill="#4B4D59" d="M20 37h1v1h-1zM21 37h1v1h-1zM22 37h1v1h-1zM23 37h1v1h-1z"/><path fill="#181818" d="M24 37h1v1h-1zM25 37h1v1h-1z"/><path fill="#2C2C2F" d="M26 37h1v1h-1z"/><path fill="#4B4D59" d="M27 37h1v1h-1zM28 37h1v1h-1zM29 37h1v1h-1z"/><path fill="#181818" d="M30 37h1v1h-1z"/><path fill="#2C2C2F" d="M31 37h1v1h-1z"/><path fill="#4B4D59" d="M32 37h1v1h-1zM33 37h1v1h-1z"/><path d="M34 37h1v1h-1z"/><path fill="#A678F1" d="M35 37h1v1h-1z"/><path fill="#C890F0" d="M36 37h1v1h-1zM37 37h1v1h-1zM38 37h1v1h-1z"/><path fill="#A678F1" d="M39 37h1v1h-1zM40 37h1v1h-1zM41 37h1v1h-1z"/><path fill="#8D6ACC" d="M42 37h1v1h-1zM43 37h1v1h-1zM44 37h1v1h-1zM45 37h1v1h-1z"/><path fill="#7A5BB5" d="M46 37h1v1h-1zM47 37h1v1h-1zM48 37h1v1h-1z"/><path fill="#181818" d="M49 37h1v1h-1zM50 37h1v1h-1zM51 37h1v1h-1zM0 38h1v1H0zM1 38h1v1H1zM2 38h1v1H2z"/><path fill="#8D6ACC" d="M3 38h1v1H3zM4 38h1v1H4zM5 38h1v1H5zM6 38h1v1H6z"/><path fill="#A678F1" d="M7 38h1v1H7zM8 38h1v1H8zM9 38h1v1H9zM10 38h1v1h-1zM11 38h1v1h-1zM12 38h1v1h-1z"/><path fill="#C890F0" d="M13 38h1v1h-1zM14 38h1v1h-1zM15 38h1v1h-1z"/><path fill="#A678F1" d="M16 38h1v1h-1zM17 38h1v1h-1z"/><path d="M18 38h1v1h-1z"/><path fill="#2C2C2F" d="M19 38h1v1h-1zM20 38h1v1h-1z"/><path fill="#4B4D59" d="M21 38h1v1h-1zM22 38h1v1h-1zM23 38h1v1h-1z"/><path fill="#181818" d="M24 38h1v1h-1zM25 38h1v1h-1z"/><path fill="#2C2C2F" d="M26 38h1v1h-1z"/><path fill="#4B4D59" d="M27 38h1v1h-1zM28 38h1v1h-1zM29 38h1v1h-1z"/><path fill="#181818" d="M30 38h1v1h-1z"/><path fill="#2C2C2F" d="M31 38h1v1h-1z"/><path fill="#4B4D59" d="M32 38h1v1h-1zM33 38h1v1h-1z"/><path d="M34 38h1v1h-1z"/><path fill="#A678F1" d="M35 38h1v1h-1z"/><path fill="#C890F0" d="M36 38h1v1h-1zM37 38h1v1h-1zM38 38h1v1h-1z"/><path fill="#A678F1" d="M39 38h1v1h-1zM40 38h1v1h-1zM41 38h1v1h-1z"/><path fill="#8D6ACC" d="M42 38h1v1h-1zM43 38h1v1h-1zM44 38h1v1h-1zM45 38h1v1h-1z"/><path fill="#7A5BB5" d="M46 38h1v1h-1zM47 38h1v1h-1zM48 38h1v1h-1z"/><path fill="#181818" d="M49 38h1v1h-1zM50 38h1v1h-1zM51 38h1v1h-1zM0 39h1v1H0zM1 39h1v1H1zM2 39h1v1H2z"/><path fill="#8D6ACC" d="M3 39h1v1H3zM4 39h1v1H4zM5 39h1v1H5zM6 39h1v1H6z"/><path fill="#A678F1" d="M7 39h1v1H7zM8 39h1v1H8zM9 39h1v1H9zM10 39h1v1h-1zM11 39h1v1h-1zM12 39h1v1h-1z"/><path fill="#C890F0" d="M13 39h1v1h-1zM14 39h1v1h-1zM15 39h1v1h-1z"/><path fill="#A678F1" d="M16 39h1v1h-1zM17 39h1v1h-1z"/><path d="M18 39h1v1h-1z"/><path fill="#2C2C2F" d="M19 39h1v1h-1zM20 39h1v1h-1zM21 39h1v1h-1zM22 39h1v1h-1zM23 39h1v1h-1z"/><path d="M24 39h1v1h-1zM25 39h1v1h-1z"/><path fill="#2C2C2F" d="M26 39h1v1h-1zM27 39h1v1h-1zM28 39h1v1h-1zM29 39h1v1h-1z"/><path d="M30 39h1v1h-1z"/><path fill="#2C2C2F" d="M31 39h1v1h-1zM32 39h1v1h-1zM33 39h1v1h-1z"/><path d="M34 39h1v1h-1z"/><path fill="#A678F1" d="M35 39h1v1h-1z"/><path fill="#C890F0" d="M36 39h1v1h-1zM37 39h1v1h-1zM38 39h1v1h-1z"/><path fill="#A678F1" d="M39 39h1v1h-1zM40 39h1v1h-1zM41 39h1v1h-1z"/><path fill="#8D6ACC" d="M42 39h1v1h-1zM43 39h1v1h-1zM44 39h1v1h-1zM45 39h1v1h-1z"/><path fill="#7A5BB5" d="M46 39h1v1h-1zM47 39h1v1h-1zM48 39h1v1h-1z"/><path fill="#181818" d="M49 39h1v1h-1zM50 39h1v1h-1zM51 39h1v1h-1zM0 40h1v1H0zM1 40h1v1H1zM2 40h1v1H2z"/><path fill="#8D6ACC" d="M3 40h1v1H3zM4 40h1v1H4zM5 40h1v1H5zM6 40h1v1H6z"/><path fill="#A678F1" d="M7 40h1v1H7zM8 40h1v1H8zM9 40h1v1H9zM10 40h1v1h-1zM11 40h1v1h-1zM12 40h1v1h-1z"/><path fill="#C890F0" d="M13 40h1v1h-1zM14 40h1v1h-1zM15 40h1v1h-1z"/><path fill="#A678F1" d="M16 40h1v1h-1zM17 40h1v1h-1zM18 40h1v1h-1z"/><path d="M19 40h1v1h-1zM20 40h1v1h-1zM21 40h1v1h-1zM22 40h1v1h-1zM23 40h1v1h-1z"/><path fill="#64479E" d="M24 40h1v1h-1zM25 40h1v1h-1z"/><path d="M26 40h1v1h-1zM27 40h1v1h-1zM28 40h1v1h-1zM29 40h1v1h-1z"/><path fill="#8D6ACC" d="M30 40h1v1h-1z"/><path d="M31 40h1v1h-1zM32 40h1v1h-1zM33 40h1v1h-1z"/><path fill="#A678F1" d="M34 40h1v1h-1zM35 40h1v1h-1z"/><path fill="#C890F0" d="M36 40h1v1h-1zM37 40h1v1h-1zM38 40h1v1h-1z"/><path fill="#A678F1" d="M39 40h1v1h-1zM40 40h1v1h-1zM41 40h1v1h-1z"/><path fill="#8D6ACC" d="M42 40h1v1h-1zM43 40h1v1h-1zM44 40h1v1h-1zM45 40h1v1h-1z"/><path fill="#7A5BB5" d="M46 40h1v1h-1zM47 40h1v1h-1zM48 40h1v1h-1z"/><path fill="#181818" d="M49 40h1v1h-1zM50 40h1v1h-1zM51 40h1v1h-1z"/><path fill="#292B2D" d="M0 41h1v1H0zM1 41h1v1H1zM2 41h1v1H2z"/><path fill="#A678F1" d="M3 41h1v1H3zM4 41h1v1H4zM5 41h1v1H5zM6 41h1v1H6z"/><path fill="#C890F0" d="M7 41h1v1H7zM8 41h1v1H8zM9 41h1v1H9z"/><path fill="#FECBE6" d="M10 41h1v1h-1zM11 41h1v1h-1zM12 41h1v1h-1zM13 41h1v1h-1zM14 41h1v1h-1zM15 41h1v1h-1z"/><path fill="#A678F1" d="M16 41h1v1h-1zM17 41h1v1h-1zM18 41h1v1h-1zM19 41h1v1h-1zM20 41h1v1h-1zM21 41h1v1h-1zM22 41h1v1h-1z"/><path fill="#7A5BB5" d="M23 41h1v1h-1zM24 41h1v1h-1zM25 41h1v1h-1z"/><path fill="#64479E" d="M26 41h1v1h-1zM27 41h1v1h-1zM28 41h1v1h-1zM29 41h1v1h-1zM30 41h1v1h-1zM31 41h1v1h-1zM32 41h1v1h-1z"/><path fill="#7A5BB5" d="M33 41h1v1h-1zM34 41h1v1h-1zM35 41h1v1h-1z"/><path fill="#A678F1" d="M36 41h1v1h-1zM37 41h1v1h-1zM38 41h1v1h-1z"/><path fill="#5D3A9A" d="M39 41h1v1h-1zM40 41h1v1h-1zM41 41h1v1h-1z"/><path fill="#64479E" d="M42 41h1v1h-1zM43 41h1v1h-1zM44 41h1v1h-1zM45 41h1v1h-1z"/><path fill="#A678F1" d="M46 41h1v1h-1zM47 41h1v1h-1zM48 41h1v1h-1z"/><path fill="#292B2D" d="M49 41h1v1h-1zM50 41h1v1h-1zM51 41h1v1h-1zM0 42h1v1H0zM1 42h1v1H1zM2 42h1v1H2z"/><path fill="#A678F1" d="M3 42h1v1H3zM4 42h1v1H4zM5 42h1v1H5zM6 42h1v1H6z"/><path fill="#C890F0" d="M7 42h1v1H7zM8 42h1v1H8zM9 42h1v1H9z"/><path fill="#FECBE6" d="M10 42h1v1h-1zM11 42h1v1h-1zM12 42h1v1h-1zM13 42h1v1h-1zM14 42h1v1h-1zM15 42h1v1h-1z"/><path fill="#A678F1" d="M16 42h1v1h-1zM17 42h1v1h-1zM18 42h1v1h-1zM19 42h1v1h-1zM20 42h1v1h-1zM21 42h1v1h-1zM22 42h1v1h-1z"/><path fill="#7A5BB5" d="M23 42h1v1h-1zM24 42h1v1h-1zM25 42h1v1h-1z"/><path fill="#64479E" d="M26 42h1v1h-1zM27 42h1v1h-1zM28 42h1v1h-1zM29 42h1v1h-1zM30 42h1v1h-1zM31 42h1v1h-1zM32 42h1v1h-1z"/><path fill="#7A5BB5" d="M33 42h1v1h-1zM34 42h1v1h-1zM35 42h1v1h-1z"/><path fill="#A678F1" d="M36 42h1v1h-1zM37 42h1v1h-1zM38 42h1v1h-1z"/><path fill="#5D3A9A" d="M39 42h1v1h-1zM40 42h1v1h-1zM41 42h1v1h-1z"/><path fill="#64479E" d="M42 42h1v1h-1zM43 42h1v1h-1zM44 42h1v1h-1zM45 42h1v1h-1z"/><path fill="#A678F1" d="M46 42h1v1h-1zM47 42h1v1h-1zM48 42h1v1h-1z"/><path fill="#292B2D" d="M49 42h1v1h-1zM50 42h1v1h-1zM51 42h1v1h-1zM0 43h1v1H0zM1 43h1v1H1zM2 43h1v1H2z"/><path fill="#A678F1" d="M3 43h1v1H3zM4 43h1v1H4zM5 43h1v1H5zM6 43h1v1H6z"/><path fill="#C890F0" d="M7 43h1v1H7zM8 43h1v1H8zM9 43h1v1H9z"/><path fill="#FECBE6" d="M10 43h1v1h-1zM11 43h1v1h-1zM12 43h1v1h-1zM13 43h1v1h-1zM14 43h1v1h-1zM15 43h1v1h-1z"/><path fill="#A678F1" d="M16 43h1v1h-1zM17 43h1v1h-1zM18 43h1v1h-1zM19 43h1v1h-1zM20 43h1v1h-1zM21 43h1v1h-1zM22 43h1v1h-1z"/><path fill="#7A5BB5" d="M23 43h1v1h-1zM24 43h1v1h-1zM25 43h1v1h-1z"/><path fill="#64479E" d="M26 43h1v1h-1zM27 43h1v1h-1zM28 43h1v1h-1zM29 43h1v1h-1zM30 43h1v1h-1zM31 43h1v1h-1zM32 43h1v1h-1z"/><path fill="#7A5BB5" d="M33 43h1v1h-1zM34 43h1v1h-1zM35 43h1v1h-1z"/><path fill="#A678F1" d="M36 43h1v1h-1zM37 43h1v1h-1zM38 43h1v1h-1z"/><path fill="#5D3A9A" d="M39 43h1v1h-1zM40 43h1v1h-1zM41 43h1v1h-1z"/><path fill="#64479E" d="M42 43h1v1h-1zM43 43h1v1h-1zM44 43h1v1h-1zM45 43h1v1h-1z"/><path fill="#A678F1" d="M46 43h1v1h-1zM47 43h1v1h-1zM48 43h1v1h-1z"/><path fill="#292B2D" d="M49 43h1v1h-1zM50 43h1v1h-1zM51 43h1v1h-1z"/><path fill="#454B52" d="M0 44h1v1H0zM1 44h1v1H1zM2 44h1v1H2zM3 44h1v1H3zM4 44h1v1H4zM5 44h1v1H5zM6 44h1v1H6z"/><path fill="#8D6ACC" d="M7 44h1v1H7zM8 44h1v1H8zM9 44h1v1H9zM10 44h1v1h-1zM11 44h1v1h-1zM12 44h1v1h-1z"/><path fill="#C890F0" d="M13 44h1v1h-1zM14 44h1v1h-1zM15 44h1v1h-1z"/><path fill="#5D3A9A" d="M16 44h1v1h-1zM17 44h1v1h-1zM18 44h1v1h-1zM19 44h1v1h-1z"/><path fill="#64479E" d="M20 44h1v1h-1zM21 44h1v1h-1zM22 44h1v1h-1zM23 44h1v1h-1zM24 44h1v1h-1zM25 44h1v1h-1z"/><path fill="#5D3A9A" d="M26 44h1v1h-1zM27 44h1v1h-1zM28 44h1v1h-1z"/><path fill="#7A5BB5" d="M29 44h1v1h-1zM30 44h1v1h-1zM31 44h1v1h-1zM32 44h1v1h-1zM33 44h1v1h-1zM34 44h1v1h-1zM35 44h1v1h-1zM36 44h1v1h-1zM37 44h1v1h-1zM38 44h1v1h-1z"/><path fill="#64479E" d="M39 44h1v1h-1zM40 44h1v1h-1zM41 44h1v1h-1z"/><path fill="#7A5BB5" d="M42 44h1v1h-1zM43 44h1v1h-1zM44 44h1v1h-1zM45 44h1v1h-1z"/><path fill="#454B52" d="M46 44h1v1h-1zM47 44h1v1h-1zM48 44h1v1h-1zM49 44h1v1h-1zM50 44h1v1h-1zM51 44h1v1h-1zM0 45h1v1H0zM1 45h1v1H1zM2 45h1v1H2zM3 45h1v1H3zM4 45h1v1H4zM5 45h1v1H5zM6 45h1v1H6z"/><path fill="#8D6ACC" d="M7 45h1v1H7zM8 45h1v1H8zM9 45h1v1H9zM10 45h1v1h-1zM11 45h1v1h-1zM12 45h1v1h-1z"/><path fill="#C890F0" d="M13 45h1v1h-1zM14 45h1v1h-1zM15 45h1v1h-1z"/><path fill="#5D3A9A" d="M16 45h1v1h-1zM17 45h1v1h-1zM18 45h1v1h-1zM19 45h1v1h-1z"/><path fill="#64479E" d="M20 45h1v1h-1zM21 45h1v1h-1zM22 45h1v1h-1zM23 45h1v1h-1zM24 45h1v1h-1zM25 45h1v1h-1z"/><path fill="#5D3A9A" d="M26 45h1v1h-1zM27 45h1v1h-1zM28 45h1v1h-1z"/><path fill="#7A5BB5" d="M29 45h1v1h-1zM30 45h1v1h-1zM31 45h1v1h-1zM32 45h1v1h-1zM33 45h1v1h-1zM34 45h1v1h-1zM35 45h1v1h-1zM36 45h1v1h-1zM37 45h1v1h-1zM38 45h1v1h-1z"/><path fill="#64479E" d="M39 45h1v1h-1zM40 45h1v1h-1zM41 45h1v1h-1z"/><path fill="#7A5BB5" d="M42 45h1v1h-1zM43 45h1v1h-1zM44 45h1v1h-1zM45 45h1v1h-1z"/><path fill="#454B52" d="M46 45h1v1h-1zM47 45h1v1h-1zM48 45h1v1h-1zM49 45h1v1h-1zM50 45h1v1h-1zM51 45h1v1h-1zM0 46h1v1H0zM1 46h1v1H1zM2 46h1v1H2zM3 46h1v1H3zM4 46h1v1H4zM5 46h1v1H5zM6 46h1v1H6z"/><path fill="#8D6ACC" d="M7 46h1v1H7zM8 46h1v1H8zM9 46h1v1H9zM10 46h1v1h-1zM11 46h1v1h-1zM12 46h1v1h-1z"/><path fill="#C890F0" d="M13 46h1v1h-1zM14 46h1v1h-1zM15 46h1v1h-1z"/><path fill="#5D3A9A" d="M16 46h1v1h-1zM17 46h1v1h-1zM18 46h1v1h-1zM19 46h1v1h-1z"/><path fill="#64479E" d="M20 46h1v1h-1zM21 46h1v1h-1zM22 46h1v1h-1zM23 46h1v1h-1zM24 46h1v1h-1zM25 46h1v1h-1z"/><path fill="#5D3A9A" d="M26 46h1v1h-1zM27 46h1v1h-1zM28 46h1v1h-1z"/><path fill="#7A5BB5" d="M29 46h1v1h-1zM30 46h1v1h-1zM31 46h1v1h-1zM32 46h1v1h-1zM33 46h1v1h-1zM34 46h1v1h-1zM35 46h1v1h-1zM36 46h1v1h-1zM37 46h1v1h-1zM38 46h1v1h-1z"/><path fill="#64479E" d="M39 46h1v1h-1zM40 46h1v1h-1zM41 46h1v1h-1z"/><path fill="#7A5BB5" d="M42 46h1v1h-1zM43 46h1v1h-1zM44 46h1v1h-1zM45 46h1v1h-1z"/><path fill="#454B52" d="M46 46h1v1h-1zM47 46h1v1h-1zM48 46h1v1h-1zM49 46h1v1h-1zM50 46h1v1h-1zM51 46h1v1h-1z"/><path fill="#4B4D59" d="M0 47h1v1H0zM1 47h1v1H1zM2 47h1v1H2z"/><path fill="#454B52" d="M3 47h1v1H3zM4 47h1v1H4zM5 47h1v1H5zM6 47h1v1H6zM7 47h1v1H7zM8 47h1v1H8zM9 47h1v1H9z"/><path fill="#8D6ACC" d="M10 47h1v1h-1zM11 47h1v1h-1zM12 47h1v1h-1z"/><path fill="#A678F1" d="M13 47h1v1h-1zM14 47h1v1h-1zM15 47h1v1h-1z"/><path fill="#64479E" d="M16 47h1v1h-1zM17 47h1v1h-1zM18 47h1v1h-1zM19 47h1v1h-1z"/><path fill="#7A5BB5" d="M20 47h1v1h-1zM21 47h1v1h-1zM22 47h1v1h-1z"/><path fill="#64479E" d="M23 47h1v1h-1zM24 47h1v1h-1zM25 47h1v1h-1z"/><path fill="#7A5BB5" d="M26 47h1v1h-1zM27 47h1v1h-1zM28 47h1v1h-1z"/><path fill="#C890F0" d="M29 47h1v1h-1zM30 47h1v1h-1zM31 47h1v1h-1zM32 47h1v1h-1z"/><path fill="#7A5BB5" d="M33 47h1v1h-1zM34 47h1v1h-1zM35 47h1v1h-1z"/><path fill="#64479E" d="M36 47h1v1h-1zM37 47h1v1h-1zM38 47h1v1h-1z"/><path fill="#7A5BB5" d="M39 47h1v1h-1zM40 47h1v1h-1zM41 47h1v1h-1z"/><path fill="#454B52" d="M42 47h1v1h-1zM43 47h1v1h-1zM44 47h1v1h-1zM45 47h1v1h-1zM46 47h1v1h-1zM47 47h1v1h-1zM48 47h1v1h-1z"/><path fill="#4B4D59" d="M49 47h1v1h-1zM50 47h1v1h-1zM51 47h1v1h-1zM0 48h1v1H0zM1 48h1v1H1zM2 48h1v1H2z"/><path fill="#454B52" d="M3 48h1v1H3zM4 48h1v1H4zM5 48h1v1H5zM6 48h1v1H6zM7 48h1v1H7zM8 48h1v1H8zM9 48h1v1H9z"/><path fill="#8D6ACC" d="M10 48h1v1h-1zM11 48h1v1h-1zM12 48h1v1h-1z"/><path fill="#A678F1" d="M13 48h1v1h-1zM14 48h1v1h-1zM15 48h1v1h-1z"/><path fill="#64479E" d="M16 48h1v1h-1zM17 48h1v1h-1zM18 48h1v1h-1zM19 48h1v1h-1z"/><path fill="#7A5BB5" d="M20 48h1v1h-1zM21 48h1v1h-1zM22 48h1v1h-1z"/><path fill="#64479E" d="M23 48h1v1h-1zM24 48h1v1h-1zM25 48h1v1h-1z"/><path fill="#7A5BB5" d="M26 48h1v1h-1zM27 48h1v1h-1zM28 48h1v1h-1z"/><path fill="#C890F0" d="M29 48h1v1h-1zM30 48h1v1h-1zM31 48h1v1h-1zM32 48h1v1h-1z"/><path fill="#7A5BB5" d="M33 48h1v1h-1zM34 48h1v1h-1zM35 48h1v1h-1z"/><path fill="#64479E" d="M36 48h1v1h-1zM37 48h1v1h-1zM38 48h1v1h-1z"/><path fill="#7A5BB5" d="M39 48h1v1h-1zM40 48h1v1h-1zM41 48h1v1h-1z"/><path fill="#454B52" d="M42 48h1v1h-1zM43 48h1v1h-1zM44 48h1v1h-1zM45 48h1v1h-1zM46 48h1v1h-1zM47 48h1v1h-1zM48 48h1v1h-1z"/><path fill="#4B4D59" d="M49 48h1v1h-1zM50 48h1v1h-1zM51 48h1v1h-1zM0 49h1v1H0zM1 49h1v1H1zM2 49h1v1H2z"/><path fill="#454B52" d="M3 49h1v1H3zM4 49h1v1H4zM5 49h1v1H5zM6 49h1v1H6zM7 49h1v1H7zM8 49h1v1H8zM9 49h1v1H9z"/><path fill="#8D6ACC" d="M10 49h1v1h-1zM11 49h1v1h-1zM12 49h1v1h-1z"/><path fill="#A678F1" d="M13 49h1v1h-1zM14 49h1v1h-1zM15 49h1v1h-1z"/><path fill="#64479E" d="M16 49h1v1h-1zM17 49h1v1h-1zM18 49h1v1h-1zM19 49h1v1h-1z"/><path fill="#7A5BB5" d="M20 49h1v1h-1zM21 49h1v1h-1zM22 49h1v1h-1z"/><path fill="#64479E" d="M23 49h1v1h-1zM24 49h1v1h-1zM25 49h1v1h-1z"/><path fill="#7A5BB5" d="M26 49h1v1h-1zM27 49h1v1h-1zM28 49h1v1h-1z"/><path fill="#C890F0" d="M29 49h1v1h-1zM30 49h1v1h-1zM31 49h1v1h-1zM32 49h1v1h-1z"/><path fill="#7A5BB5" d="M33 49h1v1h-1zM34 49h1v1h-1zM35 49h1v1h-1z"/><path fill="#64479E" d="M36 49h1v1h-1zM37 49h1v1h-1zM38 49h1v1h-1z"/><path fill="#7A5BB5" d="M39 49h1v1h-1zM40 49h1v1h-1zM41 49h1v1h-1z"/><path fill="#454B52" d="M42 49h1v1h-1zM43 49h1v1h-1zM44 49h1v1h-1zM45 49h1v1h-1zM46 49h1v1h-1zM47 49h1v1h-1zM48 49h1v1h-1z"/><path fill="#4B4D59" d="M49 49h1v1h-1zM50 49h1v1h-1zM51 49h1v1h-1zM0 50h1v1H0zM1 50h1v1H1zM2 50h1v1H2z"/><path fill="#454B52" d="M3 50h1v1H3zM4 50h1v1H4zM5 50h1v1H5zM6 50h1v1H6zM7 50h1v1H7zM8 50h1v1H8zM9 50h1v1H9z"/><path fill="#8D6ACC" d="M10 50h1v1h-1zM11 50h1v1h-1zM12 50h1v1h-1z"/><path fill="#A678F1" d="M13 50h1v1h-1zM14 50h1v1h-1zM15 50h1v1h-1z"/><path fill="#64479E" d="M16 50h1v1h-1zM17 50h1v1h-1zM18 50h1v1h-1zM19 50h1v1h-1z"/><path fill="#7A5BB5" d="M20 50h1v1h-1zM21 50h1v1h-1zM22 50h1v1h-1z"/><path fill="#64479E" d="M23 50h1v1h-1zM24 50h1v1h-1zM25 50h1v1h-1z"/><path fill="#7A5BB5" d="M26 50h1v1h-1zM27 50h1v1h-1zM28 50h1v1h-1z"/><path fill="#C890F0" d="M29 50h1v1h-1zM30 50h1v1h-1zM31 50h1v1h-1zM32 50h1v1h-1z"/><path fill="#7A5BB5" d="M33 50h1v1h-1zM34 50h1v1h-1zM35 50h1v1h-1z"/><path fill="#64479E" d="M36 50h1v1h-1zM37 50h1v1h-1zM38 50h1v1h-1z"/><path fill="#7A5BB5" d="M39 50h1v1h-1zM40 50h1v1h-1zM41 50h1v1h-1z"/><path fill="#454B52" d="M42 50h1v1h-1zM43 50h1v1h-1zM44 50h1v1h-1zM45 50h1v1h-1zM46 50h1v1h-1zM47 50h1v1h-1zM48 50h1v1h-1z"/><path fill="#4B4D59" d="M49 50h1v1h-1zM50 50h1v1h-1zM51 50h1v1h-1zM0 51h1v1H0zM1 51h1v1H1zM2 51h1v1H2zM3 51h1v1H3zM4 51h1v1H4zM5 51h1v1H5zM6 51h1v1H6z"/><path fill="#454B52" d="M7 51h1v1H7zM8 51h1v1H8zM9 51h1v1H9z"/><path fill="#292B2D" d="M10 51h1v1h-1zM11 51h1v1h-1zM12 51h1v1h-1zM13 51h1v1h-1zM14 51h1v1h-1zM15 51h1v1h-1z"/><path fill="#181818" d="M16 51h1v1h-1zM17 51h1v1h-1zM18 51h1v1h-1zM19 51h1v1h-1zM20 51h1v1h-1zM21 51h1v1h-1zM22 51h1v1h-1zM23 51h1v1h-1zM24 51h1v1h-1zM25 51h1v1h-1zM26 51h1v1h-1zM27 51h1v1h-1zM28 51h1v1h-1zM29 51h1v1h-1zM30 51h1v1h-1zM31 51h1v1h-1zM32 51h1v1h-1zM33 51h1v1h-1zM34 51h1v1h-1zM35 51h1v1h-1z"/><path fill="#292B2D" d="M36 51h1v1h-1zM37 51h1v1h-1zM38 51h1v1h-1zM39 51h1v1h-1zM40 51h1v1h-1zM41 51h1v1h-1z"/><path fill="#454B52" d="M42 51h1v1h-1zM43 51h1v1h-1zM44 51h1v1h-1zM45 51h1v1h-1z"/><path fill="#4B4D59" d="M46 51h1v1h-1zM47 51h1v1h-1zM48 51h1v1h-1zM49 51h1v1h-1zM50 51h1v1h-1zM51 51h1v1h-1zM0 52h1v1H0zM1 52h1v1H1zM2 52h1v1H2zM3 52h1v1H3zM4 52h1v1H4zM5 52h1v1H5zM6 52h1v1H6z"/><path fill="#454B52" d="M7 52h1v1H7zM8 52h1v1H8zM9 52h1v1H9z"/><path fill="#292B2D" d="M10 52h1v1h-1zM11 52h1v1h-1zM12 52h1v1h-1zM13 52h1v1h-1zM14 52h1v1h-1zM15 52h1v1h-1z"/><path fill="#181818" d="M16 52h1v1h-1zM17 52h1v1h-1zM18 52h1v1h-1zM19 52h1v1h-1zM20 52h1v1h-1zM21 52h1v1h-1zM22 52h1v1h-1zM23 52h1v1h-1zM24 52h1v1h-1zM25 52h1v1h-1zM26 52h1v1h-1zM27 52h1v1h-1zM28 52h1v1h-1zM29 52h1v1h-1zM30 52h1v1h-1zM31 52h1v1h-1zM32 52h1v1h-1zM33 52h1v1h-1zM34 52h1v1h-1zM35 52h1v1h-1z"/><path fill="#292B2D" d="M36 52h1v1h-1zM37 52h1v1h-1zM38 52h1v1h-1zM39 52h1v1h-1zM40 52h1v1h-1zM41 52h1v1h-1z"/><path fill="#454B52" d="M42 52h1v1h-1zM43 52h1v1h-1zM44 52h1v1h-1zM45 52h1v1h-1z"/><path fill="#4B4D59" d="M46 52h1v1h-1zM47 52h1v1h-1zM48 52h1v1h-1zM49 52h1v1h-1zM50 52h1v1h-1zM51 52h1v1h-1zM0 53h1v1H0zM1 53h1v1H1zM2 53h1v1H2zM3 53h1v1H3zM4 53h1v1H4zM5 53h1v1H5zM6 53h1v1H6z"/><path fill="#454B52" d="M7 53h1v1H7zM8 53h1v1H8zM9 53h1v1H9z"/><path fill="#292B2D" d="M10 53h1v1h-1zM11 53h1v1h-1zM12 53h1v1h-1zM13 53h1v1h-1zM14 53h1v1h-1zM15 53h1v1h-1z"/><path fill="#181818" d="M16 53h1v1h-1zM17 53h1v1h-1zM18 53h1v1h-1zM19 53h1v1h-1zM20 53h1v1h-1zM21 53h1v1h-1zM22 53h1v1h-1zM23 53h1v1h-1zM24 53h1v1h-1zM25 53h1v1h-1zM26 53h1v1h-1zM27 53h1v1h-1zM28 53h1v1h-1zM29 53h1v1h-1zM30 53h1v1h-1zM31 53h1v1h-1zM32 53h1v1h-1zM33 53h1v1h-1zM34 53h1v1h-1zM35 53h1v1h-1z"/><path fill="#292B2D" d="M36 53h1v1h-1zM37 53h1v1h-1zM38 53h1v1h-1zM39 53h1v1h-1zM40 53h1v1h-1zM41 53h1v1h-1z"/><path fill="#454B52" d="M42 53h1v1h-1zM43 53h1v1h-1zM44 53h1v1h-1zM45 53h1v1h-1z"/><path fill="#4B4D59" d="M46 53h1v1h-1zM47 53h1v1h-1zM48 53h1v1h-1zM49 53h1v1h-1zM50 53h1v1h-1zM51 53h1v1h-1z"/></svg>